<svg width="173" height="173" viewBox="0 0 173 173" fill="none" xmlns="http://www.w3.org/2000/svg">
<rect x="1" y="0.5" width="171.5" height="171.5" rx="85.75" fill="#FAFAFA"/>
<rect x="1" y="0.5" width="171.5" height="171.5" rx="85.75" stroke="#DEDCDC"/>
<path d="M75.0087 83.61C74.1207 83.61 73.1727 83.478 72.1647 83.214C71.1567 82.926 70.3287 82.518 69.6807 81.99C69.3687 81.726 69.1167 81.39 68.9247 80.982C68.7567 80.55 68.6727 80.142 68.6727 79.758C68.6727 79.35 68.8407 78.966 69.1767 78.606C69.5367 78.246 70.0407 78.066 70.6887 78.066C71.1207 78.066 71.6607 78.294 72.3087 78.75C72.6927 78.99 73.1127 79.206 73.5687 79.398C74.0247 79.59 74.4927 79.686 74.9727 79.686C76.1247 79.686 77.1207 79.482 77.9607 79.074C78.8007 78.642 79.4487 78.054 79.9047 77.31C80.3607 76.566 80.5887 75.69 80.5887 74.682C80.5887 73.77 80.3727 72.99 79.9407 72.342C79.5327 71.694 78.9807 71.19 78.2847 70.83C77.6127 70.47 76.8807 70.29 76.0887 70.29C75.3447 70.29 74.6967 70.41 74.1447 70.65C73.5927 70.89 73.0887 71.142 72.6327 71.406C72.1767 71.646 71.7207 71.766 71.2647 71.766C70.4727 71.766 69.8847 71.598 69.5007 71.262C69.1167 70.902 68.8767 70.482 68.7807 70.002C68.6847 69.522 68.6607 69.09 68.7087 68.706L69.8247 59.958C69.9207 59.454 70.1607 59.046 70.5447 58.734C70.9527 58.398 71.4327 58.23 71.9847 58.23H82.3887C82.9647 58.23 83.4447 58.422 83.8287 58.806C84.2127 59.19 84.4047 59.67 84.4047 60.246C84.4047 60.798 84.2127 61.266 83.8287 61.65C83.4447 62.01 82.9647 62.19 82.3887 62.19H73.1007L73.4967 61.866L72.5247 69.174L72.0567 67.806C72.2007 67.566 72.5127 67.338 72.9927 67.122C73.4727 66.906 74.0247 66.726 74.6487 66.582C75.2727 66.414 75.8847 66.33 76.4847 66.33C78.0927 66.33 79.5327 66.702 80.8047 67.446C82.0767 68.166 83.0727 69.162 83.7927 70.434C84.5367 71.682 84.9087 73.098 84.9087 74.682C84.9087 76.482 84.5007 78.054 83.6847 79.398C82.8687 80.742 81.7167 81.786 80.2287 82.53C78.7647 83.25 77.0247 83.61 75.0087 83.61ZM89.8108 73.314C89.2348 73.314 88.7548 73.122 88.3708 72.738C87.9868 72.354 87.7948 71.874 87.7948 71.298C87.7948 70.722 87.9868 70.254 88.3708 69.894C88.7548 69.534 89.2348 69.354 89.8108 69.354H104.463C105.039 69.354 105.519 69.546 105.903 69.93C106.287 70.29 106.479 70.758 106.479 71.334C106.479 71.91 106.287 72.39 105.903 72.774C105.519 73.134 105.039 73.314 104.463 73.314H89.8108ZM97.0828 80.334C96.4108 80.334 95.8468 80.118 95.3908 79.686C94.9588 79.254 94.7428 78.702 94.7428 78.03V63.99C94.7428 63.318 94.9708 62.766 95.4268 62.334C95.8828 61.902 96.4468 61.686 97.1188 61.686C97.8148 61.686 98.3668 61.902 98.7748 62.334C99.2068 62.766 99.4228 63.318 99.4228 63.99V78.03C99.4228 78.702 99.2068 79.254 98.7748 79.686C98.3428 80.118 97.7788 80.334 97.0828 80.334Z" fill="#FF623E"/>
<path d="M28.1309 106.408C28.3082 106.408 28.4669 106.478 28.6069 106.618C28.7562 106.749 28.8309 106.917 28.8309 107.122C28.8309 107.197 28.8169 107.271 28.7889 107.346C28.7702 107.411 28.7376 107.481 28.6909 107.556L25.4849 112.092L25.7089 111.266V115.536C25.7089 115.741 25.6389 115.914 25.4989 116.054C25.3589 116.185 25.2002 116.25 25.0229 116.25C24.8269 116.25 24.6589 116.185 24.5189 116.054C24.3882 115.914 24.3229 115.741 24.3229 115.536V111.378L24.4209 111.784L21.3269 107.654C21.2522 107.551 21.2009 107.458 21.1729 107.374C21.1449 107.281 21.1309 107.192 21.1309 107.108C21.1309 106.903 21.2102 106.735 21.3689 106.604C21.5369 106.473 21.7049 106.408 21.8729 106.408C22.0969 106.408 22.2882 106.515 22.4469 106.73L25.2469 110.566L24.9109 110.524L27.5429 106.744C27.7016 106.52 27.8976 106.408 28.1309 106.408ZM32.8905 116.39C32.1158 116.39 31.4438 116.231 30.8745 115.914C30.3051 115.587 29.8618 115.144 29.5445 114.584C29.2365 114.015 29.0825 113.366 29.0825 112.638C29.0825 111.817 29.2458 111.117 29.5725 110.538C29.9085 109.95 30.3425 109.502 30.8745 109.194C31.4065 108.877 31.9711 108.718 32.5685 108.718C33.0258 108.718 33.4598 108.811 33.8705 108.998C34.2811 109.175 34.6451 109.427 34.9625 109.754C35.2891 110.071 35.5458 110.449 35.7325 110.888C35.9191 111.317 36.0171 111.789 36.0265 112.302C36.0171 112.489 35.9425 112.643 35.8025 112.764C35.6625 112.885 35.4991 112.946 35.3125 112.946H29.8665L29.5305 111.756H34.7945L34.5285 112.008V111.658C34.5098 111.331 34.4025 111.047 34.2065 110.804C34.0105 110.552 33.7678 110.361 33.4785 110.23C33.1891 110.09 32.8858 110.02 32.5685 110.02C32.2885 110.02 32.0178 110.067 31.7565 110.16C31.5045 110.244 31.2758 110.384 31.0705 110.58C30.8745 110.776 30.7158 111.037 30.5945 111.364C30.4825 111.681 30.4265 112.078 30.4265 112.554C30.4265 113.067 30.5338 113.515 30.7485 113.898C30.9631 114.281 31.2525 114.579 31.6165 114.794C31.9805 114.999 32.3818 115.102 32.8205 115.102C33.1658 115.102 33.4505 115.069 33.6745 115.004C33.8985 114.929 34.0851 114.841 34.2345 114.738C34.3838 114.635 34.5145 114.537 34.6265 114.444C34.7665 114.36 34.9065 114.318 35.0465 114.318C35.2145 114.318 35.3545 114.379 35.4665 114.5C35.5785 114.612 35.6345 114.747 35.6345 114.906C35.6345 115.111 35.5318 115.298 35.3265 115.466C35.0745 115.709 34.7245 115.923 34.2765 116.11C33.8378 116.297 33.3758 116.39 32.8905 116.39ZM43.6976 108.774C43.9029 108.774 44.0709 108.844 44.2016 108.984C44.3323 109.115 44.3976 109.283 44.3976 109.488V115.536C44.3976 115.741 44.3323 115.914 44.2016 116.054C44.0709 116.185 43.9029 116.25 43.6976 116.25C43.5016 116.25 43.3336 116.185 43.1936 116.054C43.0629 115.914 42.9976 115.741 42.9976 115.536V114.528L43.2916 114.57C43.2916 114.738 43.2216 114.925 43.0816 115.13C42.9509 115.335 42.7689 115.536 42.5356 115.732C42.3023 115.919 42.0269 116.077 41.7096 116.208C41.3923 116.329 41.0516 116.39 40.6876 116.39C40.0436 116.39 39.4649 116.227 38.9516 115.9C38.4383 115.564 38.0323 115.107 37.7336 114.528C37.4349 113.949 37.2856 113.291 37.2856 112.554C37.2856 111.798 37.4349 111.135 37.7336 110.566C38.0323 109.987 38.4336 109.535 38.9376 109.208C39.4509 108.881 40.0203 108.718 40.6456 108.718C41.0469 108.718 41.4156 108.783 41.7516 108.914C42.0969 109.045 42.3956 109.213 42.6476 109.418C42.8996 109.623 43.0909 109.843 43.2216 110.076C43.3616 110.3 43.4316 110.515 43.4316 110.72L42.9976 110.762V109.488C42.9976 109.292 43.0629 109.124 43.1936 108.984C43.3336 108.844 43.5016 108.774 43.6976 108.774ZM40.8416 115.102C41.2803 115.102 41.6676 114.99 42.0036 114.766C42.3396 114.542 42.6009 114.239 42.7876 113.856C42.9743 113.464 43.0676 113.03 43.0676 112.554C43.0676 112.069 42.9743 111.635 42.7876 111.252C42.6009 110.869 42.3396 110.566 42.0036 110.342C41.6676 110.118 41.2803 110.006 40.8416 110.006C40.4123 110.006 40.0296 110.118 39.6936 110.342C39.3669 110.566 39.1056 110.869 38.9096 111.252C38.7229 111.635 38.6296 112.069 38.6296 112.554C38.6296 113.03 38.7229 113.464 38.9096 113.856C39.1056 114.239 39.3669 114.542 39.6936 114.766C40.0296 114.99 40.4123 115.102 40.8416 115.102ZM47.0589 116.25C46.8536 116.25 46.6856 116.185 46.5549 116.054C46.4242 115.914 46.3589 115.741 46.3589 115.536V109.6C46.3589 109.395 46.4242 109.227 46.5549 109.096C46.6856 108.956 46.8536 108.886 47.0589 108.886C47.2549 108.886 47.4182 108.956 47.5489 109.096C47.6889 109.227 47.7589 109.395 47.7589 109.6V111.168L47.6189 110.566C47.6936 110.305 47.8056 110.062 47.9549 109.838C48.1136 109.614 48.3002 109.418 48.5149 109.25C48.7296 109.082 48.9676 108.951 49.2289 108.858C49.4996 108.765 49.7796 108.718 50.0689 108.718C50.3116 108.718 50.5216 108.783 50.6989 108.914C50.8762 109.045 50.9649 109.208 50.9649 109.404C50.9649 109.656 50.8996 109.843 50.7689 109.964C50.6382 110.076 50.4936 110.132 50.3349 110.132C50.1949 110.132 50.0596 110.104 49.9289 110.048C49.7982 109.983 49.6442 109.95 49.4669 109.95C49.2709 109.95 49.0702 110.001 48.8649 110.104C48.6596 110.207 48.4729 110.361 48.3049 110.566C48.1369 110.762 48.0016 110.995 47.8989 111.266C47.8056 111.537 47.7589 111.84 47.7589 112.176V115.536C47.7589 115.741 47.6889 115.914 47.5489 116.054C47.4182 116.185 47.2549 116.25 47.0589 116.25ZM51.7765 115.102C51.6925 114.971 51.6551 114.822 51.6645 114.654C51.6738 114.477 51.7718 114.327 51.9585 114.206C52.0891 114.122 52.2245 114.089 52.3645 114.108C52.5138 114.117 52.6538 114.187 52.7845 114.318C53.0458 114.607 53.3351 114.836 53.6525 115.004C53.9791 115.172 54.3711 115.256 54.8285 115.256C55.0151 115.247 55.2065 115.219 55.4025 115.172C55.5985 115.116 55.7665 115.023 55.9065 114.892C56.0465 114.752 56.1165 114.551 56.1165 114.29C56.1165 114.057 56.0418 113.87 55.8925 113.73C55.7431 113.59 55.5471 113.478 55.3045 113.394C55.0618 113.301 54.8005 113.217 54.5205 113.142C54.2218 113.058 53.9185 112.965 53.6105 112.862C53.3118 112.759 53.0411 112.629 52.7985 112.47C52.5558 112.302 52.3551 112.087 52.1965 111.826C52.0471 111.565 51.9725 111.243 51.9725 110.86C51.9725 110.421 52.0938 110.043 52.3365 109.726C52.5885 109.409 52.9105 109.161 53.3025 108.984C53.7038 108.807 54.1378 108.718 54.6045 108.718C54.8751 108.718 55.1598 108.755 55.4585 108.83C55.7571 108.895 56.0465 109.003 56.3265 109.152C56.6065 109.301 56.8491 109.497 57.0545 109.74C57.1478 109.861 57.1991 110.006 57.2085 110.174C57.2271 110.342 57.1525 110.491 56.9845 110.622C56.8725 110.715 56.7371 110.757 56.5785 110.748C56.4198 110.739 56.2891 110.687 56.1865 110.594C56.0091 110.37 55.7805 110.197 55.5005 110.076C55.2205 109.945 54.9031 109.88 54.5485 109.88C54.3711 109.88 54.1845 109.908 53.9885 109.964C53.8018 110.011 53.6431 110.099 53.5125 110.23C53.3818 110.361 53.3165 110.552 53.3165 110.804C53.3165 111.037 53.3911 111.224 53.5405 111.364C53.6991 111.504 53.9045 111.621 54.1565 111.714C54.4085 111.807 54.6838 111.891 54.9825 111.966C55.2718 112.041 55.5565 112.129 55.8365 112.232C56.1258 112.335 56.3825 112.47 56.6065 112.638C56.8398 112.797 57.0265 113.007 57.1665 113.268C57.3158 113.52 57.3905 113.842 57.3905 114.234C57.3905 114.691 57.2551 115.083 56.9845 115.41C56.7231 115.727 56.3871 115.97 55.9765 116.138C55.5751 116.306 55.1505 116.39 54.7025 116.39C54.1705 116.39 53.6385 116.297 53.1065 116.11C52.5838 115.914 52.1405 115.578 51.7765 115.102ZM69.8485 112.568C69.8485 113.315 69.6852 113.977 69.3585 114.556C69.0318 115.125 68.5885 115.573 68.0285 115.9C67.4685 116.227 66.8385 116.39 66.1385 116.39C65.4385 116.39 64.8085 116.227 64.2485 115.9C63.6885 115.573 63.2405 115.125 62.9045 114.556C62.5778 113.977 62.4145 113.315 62.4145 112.568C62.4145 111.812 62.5778 111.149 62.9045 110.58C63.2405 110.001 63.6885 109.549 64.2485 109.222C64.8085 108.886 65.4385 108.718 66.1385 108.718C66.8385 108.718 67.4685 108.886 68.0285 109.222C68.5885 109.549 69.0318 110.001 69.3585 110.58C69.6852 111.149 69.8485 111.812 69.8485 112.568ZM68.4485 112.568C68.4485 112.055 68.3458 111.611 68.1405 111.238C67.9352 110.855 67.6552 110.557 67.3005 110.342C66.9552 110.118 66.5678 110.006 66.1385 110.006C65.7092 110.006 65.3172 110.118 64.9625 110.342C64.6078 110.557 64.3278 110.855 64.1225 111.238C63.9172 111.611 63.8145 112.055 63.8145 112.568C63.8145 113.063 63.9172 113.501 64.1225 113.884C64.3278 114.267 64.6078 114.565 64.9625 114.78C65.3172 114.995 65.7092 115.102 66.1385 115.102C66.5678 115.102 66.9552 114.995 67.3005 114.78C67.6552 114.565 67.9352 114.267 68.1405 113.884C68.3458 113.501 68.4485 113.063 68.4485 112.568ZM74.8631 105.904C75.0405 105.904 75.2225 105.927 75.4091 105.974C75.5958 106.021 75.7498 106.1 75.8711 106.212C76.0018 106.315 76.0671 106.459 76.0671 106.646C76.0671 106.833 76.0111 106.987 75.8991 107.108C75.7871 107.22 75.6565 107.276 75.5071 107.276C75.4138 107.276 75.2878 107.257 75.1291 107.22C74.9705 107.173 74.8118 107.15 74.6531 107.15C74.4385 107.15 74.2658 107.201 74.1351 107.304C74.0045 107.397 73.9111 107.519 73.8551 107.668C73.7991 107.808 73.7711 107.948 73.7711 108.088V115.536C73.7711 115.741 73.7011 115.914 73.5611 116.054C73.4305 116.185 73.2671 116.25 73.0711 116.25C72.8658 116.25 72.6978 116.185 72.5671 116.054C72.4365 115.914 72.3711 115.741 72.3711 115.536V108.102C72.3711 107.458 72.5811 106.931 73.0011 106.52C73.4305 106.109 74.0511 105.904 74.8631 105.904ZM75.1431 109.012C75.3298 109.012 75.4838 109.073 75.6051 109.194C75.7265 109.315 75.7871 109.469 75.7871 109.656C75.7871 109.843 75.7265 109.997 75.6051 110.118C75.4838 110.239 75.3298 110.3 75.1431 110.3H71.5171C71.3398 110.3 71.1858 110.239 71.0551 110.118C70.9338 109.997 70.8731 109.843 70.8731 109.656C70.8731 109.469 70.9338 109.315 71.0551 109.194C71.1858 109.073 71.3398 109.012 71.5171 109.012H75.1431ZM81.9535 106.45H86.7975C86.9935 106.45 87.1568 106.515 87.2875 106.646C87.4275 106.777 87.4975 106.94 87.4975 107.136C87.4975 107.332 87.4275 107.491 87.2875 107.612C87.1568 107.733 86.9935 107.794 86.7975 107.794H82.5695L82.7095 107.556V110.692L82.5835 110.552H86.1675C86.3635 110.552 86.5268 110.617 86.6575 110.748C86.7975 110.879 86.8675 111.047 86.8675 111.252C86.8675 111.448 86.7975 111.607 86.6575 111.728C86.5268 111.849 86.3635 111.91 86.1675 111.91H82.6115L82.7095 111.784V115.018L82.6115 114.906H86.7975C86.9935 114.906 87.1568 114.976 87.2875 115.116C87.4275 115.247 87.4975 115.401 87.4975 115.578C87.4975 115.774 87.4275 115.937 87.2875 116.068C87.1568 116.189 86.9935 116.25 86.7975 116.25H81.9535C81.7575 116.25 81.5895 116.185 81.4495 116.054C81.3095 115.914 81.2395 115.741 81.2395 115.536V107.164C81.2395 106.959 81.3095 106.791 81.4495 106.66C81.5895 106.52 81.7575 106.45 81.9535 106.45ZM89.1115 108.844C89.3448 108.844 89.5362 108.942 89.6855 109.138L94.4595 115.158C94.5622 115.279 94.6135 115.419 94.6135 115.578C94.6135 115.765 94.5388 115.928 94.3895 116.068C94.2402 116.208 94.0768 116.278 93.8995 116.278C93.6755 116.278 93.4842 116.18 93.3255 115.984L88.5515 109.964C88.4488 109.843 88.3975 109.703 88.3975 109.544C88.3975 109.348 88.4675 109.185 88.6075 109.054C88.7568 108.914 88.9248 108.844 89.1115 108.844ZM89.1255 116.278C88.9668 116.278 88.8128 116.217 88.6635 116.096C88.5142 115.975 88.4395 115.825 88.4395 115.648C88.4395 115.489 88.4955 115.345 88.6075 115.214L90.8335 112.456L91.5475 113.604L89.6855 115.984C89.5362 116.18 89.3495 116.278 89.1255 116.278ZM93.8855 108.844C94.0815 108.844 94.2402 108.909 94.3615 109.04C94.4922 109.161 94.5575 109.306 94.5575 109.474C94.5575 109.549 94.5435 109.628 94.5155 109.712C94.4968 109.787 94.4548 109.857 94.3895 109.922L92.1915 112.68L91.4635 111.644L93.3255 109.166C93.4842 108.951 93.6708 108.844 93.8855 108.844ZM99.6021 108.76C100.255 108.76 100.834 108.923 101.338 109.25C101.851 109.577 102.257 110.025 102.556 110.594C102.855 111.154 103.004 111.807 103.004 112.554C103.004 113.301 102.855 113.963 102.556 114.542C102.257 115.111 101.856 115.559 101.352 115.886C100.848 116.213 100.279 116.376 99.6441 116.376C99.2894 116.376 98.9534 116.32 98.6361 116.208C98.3188 116.096 98.0388 115.951 97.7961 115.774C97.5534 115.587 97.3528 115.391 97.1941 115.186C97.0448 114.981 96.9514 114.789 96.9141 114.612L97.2921 114.43V118.336C97.2921 118.541 97.2221 118.709 97.0821 118.84C96.9514 118.98 96.7881 119.05 96.5921 119.05C96.3868 119.05 96.2188 118.98 96.0881 118.84C95.9574 118.709 95.8921 118.541 95.8921 118.336V109.572C95.8921 109.376 95.9574 109.208 96.0881 109.068C96.2188 108.928 96.3868 108.858 96.5921 108.858C96.7881 108.858 96.9514 108.928 97.0821 109.068C97.2221 109.208 97.2921 109.376 97.2921 109.572V110.538L97.0681 110.412C97.0961 110.235 97.1848 110.053 97.3341 109.866C97.4834 109.67 97.6701 109.488 97.8941 109.32C98.1274 109.152 98.3888 109.017 98.6781 108.914C98.9768 108.811 99.2848 108.76 99.6021 108.76ZM99.4481 110.048C99.0001 110.048 98.6081 110.16 98.2721 110.384C97.9454 110.599 97.6888 110.893 97.5021 111.266C97.3154 111.639 97.2221 112.069 97.2221 112.554C97.2221 113.03 97.3154 113.464 97.5021 113.856C97.6888 114.239 97.9454 114.542 98.2721 114.766C98.6081 114.981 99.0001 115.088 99.4481 115.088C99.8868 115.088 100.269 114.981 100.596 114.766C100.923 114.542 101.179 114.239 101.366 113.856C101.562 113.464 101.66 113.03 101.66 112.554C101.66 112.078 101.562 111.653 101.366 111.28C101.179 110.897 100.923 110.599 100.596 110.384C100.269 110.16 99.8868 110.048 99.4481 110.048ZM108.017 116.39C107.243 116.39 106.571 116.231 106.001 115.914C105.432 115.587 104.989 115.144 104.671 114.584C104.363 114.015 104.209 113.366 104.209 112.638C104.209 111.817 104.373 111.117 104.699 110.538C105.035 109.95 105.469 109.502 106.001 109.194C106.533 108.877 107.098 108.718 107.695 108.718C108.153 108.718 108.587 108.811 108.997 108.998C109.408 109.175 109.772 109.427 110.089 109.754C110.416 110.071 110.673 110.449 110.859 110.888C111.046 111.317 111.144 111.789 111.153 112.302C111.144 112.489 111.069 112.643 110.929 112.764C110.789 112.885 110.626 112.946 110.439 112.946H104.993L104.657 111.756H109.921L109.655 112.008V111.658C109.637 111.331 109.529 111.047 109.333 110.804C109.137 110.552 108.895 110.361 108.605 110.23C108.316 110.09 108.013 110.02 107.695 110.02C107.415 110.02 107.145 110.067 106.883 110.16C106.631 110.244 106.403 110.384 106.197 110.58C106.001 110.776 105.843 111.037 105.721 111.364C105.609 111.681 105.553 112.078 105.553 112.554C105.553 113.067 105.661 113.515 105.875 113.898C106.09 114.281 106.379 114.579 106.743 114.794C107.107 114.999 107.509 115.102 107.947 115.102C108.293 115.102 108.577 115.069 108.801 115.004C109.025 114.929 109.212 114.841 109.361 114.738C109.511 114.635 109.641 114.537 109.753 114.444C109.893 114.36 110.033 114.318 110.173 114.318C110.341 114.318 110.481 114.379 110.593 114.5C110.705 114.612 110.761 114.747 110.761 114.906C110.761 115.111 110.659 115.298 110.453 115.466C110.201 115.709 109.851 115.923 109.403 116.11C108.965 116.297 108.503 116.39 108.017 116.39ZM113.436 116.25C113.231 116.25 113.063 116.185 112.932 116.054C112.801 115.914 112.736 115.741 112.736 115.536V109.6C112.736 109.395 112.801 109.227 112.932 109.096C113.063 108.956 113.231 108.886 113.436 108.886C113.632 108.886 113.795 108.956 113.926 109.096C114.066 109.227 114.136 109.395 114.136 109.6V111.168L113.996 110.566C114.071 110.305 114.183 110.062 114.332 109.838C114.491 109.614 114.677 109.418 114.892 109.25C115.107 109.082 115.345 108.951 115.606 108.858C115.877 108.765 116.157 108.718 116.446 108.718C116.689 108.718 116.899 108.783 117.076 108.914C117.253 109.045 117.342 109.208 117.342 109.404C117.342 109.656 117.277 109.843 117.146 109.964C117.015 110.076 116.871 110.132 116.712 110.132C116.572 110.132 116.437 110.104 116.306 110.048C116.175 109.983 116.021 109.95 115.844 109.95C115.648 109.95 115.447 110.001 115.242 110.104C115.037 110.207 114.85 110.361 114.682 110.566C114.514 110.762 114.379 110.995 114.276 111.266C114.183 111.537 114.136 111.84 114.136 112.176V115.536C114.136 115.741 114.066 115.914 113.926 116.054C113.795 116.185 113.632 116.25 113.436 116.25ZM119.903 115.536C119.903 115.741 119.838 115.914 119.707 116.054C119.577 116.185 119.409 116.25 119.203 116.25C119.007 116.25 118.839 116.185 118.699 116.054C118.569 115.914 118.503 115.741 118.503 115.536V109.544C118.503 109.339 118.569 109.171 118.699 109.04C118.839 108.9 119.007 108.83 119.203 108.83C119.409 108.83 119.577 108.9 119.707 109.04C119.838 109.171 119.903 109.339 119.903 109.544V115.536ZM119.189 107.906C118.919 107.906 118.723 107.859 118.601 107.766C118.48 107.663 118.419 107.495 118.419 107.262V107.038C118.419 106.805 118.485 106.641 118.615 106.548C118.746 106.455 118.942 106.408 119.203 106.408C119.483 106.408 119.684 106.459 119.805 106.562C119.927 106.655 119.987 106.814 119.987 107.038V107.262C119.987 107.505 119.922 107.673 119.791 107.766C119.67 107.859 119.469 107.906 119.189 107.906ZM125.217 116.39C124.442 116.39 123.77 116.231 123.201 115.914C122.631 115.587 122.188 115.144 121.871 114.584C121.563 114.015 121.409 113.366 121.409 112.638C121.409 111.817 121.572 111.117 121.899 110.538C122.235 109.95 122.669 109.502 123.201 109.194C123.733 108.877 124.297 108.718 124.895 108.718C125.352 108.718 125.786 108.811 126.197 108.998C126.607 109.175 126.971 109.427 127.289 109.754C127.615 110.071 127.872 110.449 128.059 110.888C128.245 111.317 128.343 111.789 128.353 112.302C128.343 112.489 128.269 112.643 128.129 112.764C127.989 112.885 127.825 112.946 127.639 112.946H122.193L121.857 111.756H127.121L126.855 112.008V111.658C126.836 111.331 126.729 111.047 126.533 110.804C126.337 110.552 126.094 110.361 125.805 110.23C125.515 110.09 125.212 110.02 124.895 110.02C124.615 110.02 124.344 110.067 124.083 110.16C123.831 110.244 123.602 110.384 123.397 110.58C123.201 110.776 123.042 111.037 122.921 111.364C122.809 111.681 122.753 112.078 122.753 112.554C122.753 113.067 122.86 113.515 123.075 113.898C123.289 114.281 123.579 114.579 123.943 114.794C124.307 114.999 124.708 115.102 125.147 115.102C125.492 115.102 125.777 115.069 126.001 115.004C126.225 114.929 126.411 114.841 126.561 114.738C126.71 114.635 126.841 114.537 126.953 114.444C127.093 114.36 127.233 114.318 127.373 114.318C127.541 114.318 127.681 114.379 127.793 114.5C127.905 114.612 127.961 114.747 127.961 114.906C127.961 115.111 127.858 115.298 127.653 115.466C127.401 115.709 127.051 115.923 126.603 116.11C126.164 116.297 125.702 116.39 125.217 116.39ZM133.729 108.718C134.392 108.718 134.905 108.858 135.269 109.138C135.633 109.409 135.885 109.777 136.025 110.244C136.174 110.701 136.249 111.215 136.249 111.784V115.536C136.249 115.741 136.179 115.914 136.039 116.054C135.908 116.185 135.745 116.25 135.549 116.25C135.344 116.25 135.176 116.185 135.045 116.054C134.914 115.914 134.849 115.741 134.849 115.536V111.798C134.849 111.462 134.802 111.163 134.709 110.902C134.616 110.631 134.452 110.417 134.219 110.258C133.995 110.09 133.678 110.006 133.267 110.006C132.884 110.006 132.548 110.09 132.259 110.258C131.97 110.417 131.741 110.631 131.573 110.902C131.414 111.163 131.335 111.462 131.335 111.798V115.536C131.335 115.741 131.265 115.914 131.125 116.054C130.994 116.185 130.831 116.25 130.635 116.25C130.43 116.25 130.262 116.185 130.131 116.054C130 115.914 129.935 115.741 129.935 115.536V109.6C129.935 109.395 130 109.227 130.131 109.096C130.262 108.956 130.43 108.886 130.635 108.886C130.831 108.886 130.994 108.956 131.125 109.096C131.265 109.227 131.335 109.395 131.335 109.6V110.384L131.083 110.524C131.148 110.319 131.26 110.113 131.419 109.908C131.587 109.693 131.788 109.497 132.021 109.32C132.254 109.133 132.516 108.989 132.805 108.886C133.094 108.774 133.402 108.718 133.729 108.718ZM141.455 108.718C141.959 108.718 142.407 108.774 142.799 108.886C143.191 108.989 143.494 109.138 143.709 109.334C143.933 109.521 144.045 109.74 144.045 109.992C144.045 110.151 143.998 110.3 143.905 110.44C143.812 110.571 143.672 110.636 143.485 110.636C143.354 110.636 143.242 110.613 143.149 110.566C143.065 110.519 142.986 110.463 142.911 110.398C142.836 110.333 142.743 110.267 142.631 110.202C142.528 110.146 142.374 110.099 142.169 110.062C141.973 110.025 141.796 110.006 141.637 110.006C141.142 110.006 140.713 110.118 140.349 110.342C139.994 110.566 139.714 110.869 139.509 111.252C139.313 111.635 139.215 112.069 139.215 112.554C139.215 113.039 139.313 113.473 139.509 113.856C139.714 114.239 139.99 114.542 140.335 114.766C140.69 114.99 141.1 115.102 141.567 115.102C141.847 115.102 142.076 115.083 142.253 115.046C142.43 114.999 142.584 114.943 142.715 114.878C142.855 114.794 142.972 114.71 143.065 114.626C143.168 114.533 143.308 114.486 143.485 114.486C143.69 114.486 143.844 114.551 143.947 114.682C144.059 114.803 144.115 114.957 144.115 115.144C144.115 115.349 143.989 115.55 143.737 115.746C143.494 115.933 143.168 116.087 142.757 116.208C142.346 116.329 141.894 116.39 141.399 116.39C140.671 116.39 140.036 116.222 139.495 115.886C138.963 115.55 138.548 115.093 138.249 114.514C137.96 113.935 137.815 113.282 137.815 112.554C137.815 111.817 137.969 111.163 138.277 110.594C138.585 110.015 139.014 109.558 139.565 109.222C140.116 108.886 140.746 108.718 141.455 108.718ZM148.883 116.39C148.108 116.39 147.436 116.231 146.867 115.914C146.297 115.587 145.854 115.144 145.537 114.584C145.229 114.015 145.075 113.366 145.075 112.638C145.075 111.817 145.238 111.117 145.565 110.538C145.901 109.95 146.335 109.502 146.867 109.194C147.399 108.877 147.963 108.718 148.561 108.718C149.018 108.718 149.452 108.811 149.863 108.998C150.273 109.175 150.637 109.427 150.955 109.754C151.281 110.071 151.538 110.449 151.725 110.888C151.911 111.317 152.009 111.789 152.019 112.302C152.009 112.489 151.935 112.643 151.795 112.764C151.655 112.885 151.491 112.946 151.305 112.946H145.859L145.523 111.756H150.787L150.521 112.008V111.658C150.502 111.331 150.395 111.047 150.199 110.804C150.003 110.552 149.76 110.361 149.471 110.23C149.181 110.09 148.878 110.02 148.561 110.02C148.281 110.02 148.01 110.067 147.749 110.16C147.497 110.244 147.268 110.384 147.063 110.58C146.867 110.776 146.708 111.037 146.587 111.364C146.475 111.681 146.419 112.078 146.419 112.554C146.419 113.067 146.526 113.515 146.741 113.898C146.955 114.281 147.245 114.579 147.609 114.794C147.973 114.999 148.374 115.102 148.813 115.102C149.158 115.102 149.443 115.069 149.667 115.004C149.891 114.929 150.077 114.841 150.227 114.738C150.376 114.635 150.507 114.537 150.619 114.444C150.759 114.36 150.899 114.318 151.039 114.318C151.207 114.318 151.347 114.379 151.459 114.5C151.571 114.612 151.627 114.747 151.627 114.906C151.627 115.111 151.524 115.298 151.319 115.466C151.067 115.709 150.717 115.923 150.269 116.11C149.83 116.297 149.368 116.39 148.883 116.39Z" fill="#0A0D12"/>
</svg>
