<svg width="173" height="173" viewBox="0 0 173 173" fill="none" xmlns="http://www.w3.org/2000/svg">
<rect x="0.5" y="0.5" width="171.5" height="171.5" rx="85.75" fill="#FAFAFA"/>
<rect x="0.5" y="0.5" width="171.5" height="171.5" rx="85.75" stroke="#DEDCDC"/>
<path d="M63.812 83.61C62.924 83.61 61.976 83.478 60.968 83.214C59.96 82.926 59.132 82.518 58.484 81.99C58.172 81.726 57.92 81.39 57.728 80.982C57.56 80.55 57.476 80.142 57.476 79.758C57.476 79.35 57.644 78.966 57.98 78.606C58.34 78.246 58.844 78.066 59.492 78.066C59.924 78.066 60.464 78.294 61.112 78.75C61.496 78.99 61.916 79.206 62.372 79.398C62.828 79.59 63.296 79.686 63.776 79.686C64.928 79.686 65.924 79.482 66.764 79.074C67.604 78.642 68.252 78.054 68.708 77.31C69.164 76.566 69.392 75.69 69.392 74.682C69.392 73.77 69.176 72.99 68.744 72.342C68.336 71.694 67.784 71.19 67.088 70.83C66.416 70.47 65.684 70.29 64.892 70.29C64.148 70.29 63.5 70.41 62.948 70.65C62.396 70.89 61.892 71.142 61.436 71.406C60.98 71.646 60.524 71.766 60.068 71.766C59.276 71.766 58.688 71.598 58.304 71.262C57.92 70.902 57.68 70.482 57.584 70.002C57.488 69.522 57.464 69.09 57.512 68.706L58.628 59.958C58.724 59.454 58.964 59.046 59.348 58.734C59.756 58.398 60.236 58.23 60.788 58.23H71.192C71.768 58.23 72.248 58.422 72.632 58.806C73.016 59.19 73.208 59.67 73.208 60.246C73.208 60.798 73.016 61.266 72.632 61.65C72.248 62.01 71.768 62.19 71.192 62.19H61.904L62.3 61.866L61.328 69.174L60.86 67.806C61.004 67.566 61.316 67.338 61.796 67.122C62.276 66.906 62.828 66.726 63.452 66.582C64.076 66.414 64.688 66.33 65.288 66.33C66.896 66.33 68.336 66.702 69.608 67.446C70.88 68.166 71.876 69.162 72.596 70.434C73.34 71.682 73.712 73.098 73.712 74.682C73.712 76.482 73.304 78.054 72.488 79.398C71.672 80.742 70.52 81.786 69.032 82.53C67.568 83.25 65.828 83.61 63.812 83.61ZM86.2102 83.61C84.1462 83.61 82.3942 83.07 80.9542 81.99C79.5382 80.886 78.4582 79.362 77.7142 77.418C76.9702 75.45 76.5982 73.194 76.5982 70.65C76.5982 68.082 76.9702 65.826 77.7142 63.882C78.4582 61.938 79.5382 60.426 80.9542 59.346C82.3942 58.242 84.1462 57.69 86.2102 57.69C88.2742 57.69 90.0142 58.242 91.4302 59.346C92.8702 60.426 93.9622 61.938 94.7062 63.882C95.4502 65.826 95.8222 68.082 95.8222 70.65C95.8222 73.194 95.4502 75.45 94.7062 77.418C93.9622 79.362 92.8702 80.886 91.4302 81.99C90.0142 83.07 88.2742 83.61 86.2102 83.61ZM86.2102 79.29C87.2182 79.29 88.0822 78.978 88.8022 78.354C89.5462 77.706 90.1222 76.746 90.5302 75.474C90.9382 74.178 91.1422 72.57 91.1422 70.65C91.1422 68.706 90.9382 67.098 90.5302 65.826C90.1222 64.554 89.5462 63.606 88.8022 62.982C88.0822 62.334 87.2182 62.01 86.2102 62.01C85.2262 62.01 84.3622 62.334 83.6182 62.982C82.8742 63.606 82.2982 64.554 81.8902 65.826C81.4822 67.098 81.2782 68.706 81.2782 70.65C81.2782 72.57 81.4822 74.178 81.8902 75.474C82.2982 76.746 82.8742 77.706 83.6182 78.354C84.3622 78.978 85.2262 79.29 86.2102 79.29ZM100.007 73.314C99.4315 73.314 98.9515 73.122 98.5675 72.738C98.1835 72.354 97.9915 71.874 97.9915 71.298C97.9915 70.722 98.1835 70.254 98.5675 69.894C98.9515 69.534 99.4315 69.354 100.007 69.354H114.659C115.235 69.354 115.715 69.546 116.099 69.93C116.483 70.29 116.675 70.758 116.675 71.334C116.675 71.91 116.483 72.39 116.099 72.774C115.715 73.134 115.235 73.314 114.659 73.314H100.007ZM107.279 80.334C106.607 80.334 106.043 80.118 105.587 79.686C105.155 79.254 104.939 78.702 104.939 78.03V63.99C104.939 63.318 105.167 62.766 105.623 62.334C106.079 61.902 106.643 61.686 107.315 61.686C108.011 61.686 108.563 61.902 108.971 62.334C109.403 62.766 109.619 63.318 109.619 63.99V78.03C109.619 78.702 109.403 79.254 108.971 79.686C108.539 80.118 107.975 80.334 107.279 80.334Z" fill="#FF623E"/>
<path d="M30.6699 106.45C31.1646 106.45 31.6219 106.585 32.0419 106.856C32.4619 107.117 32.7979 107.477 33.0499 107.934C33.3019 108.391 33.4279 108.905 33.4279 109.474C33.4279 110.043 33.3019 110.561 33.0499 111.028C32.7979 111.485 32.4619 111.854 32.0419 112.134C31.6219 112.405 31.1646 112.54 30.6699 112.54H27.9679L28.0799 112.316V115.536C28.0799 115.741 28.0146 115.914 27.8839 116.054C27.7626 116.185 27.5992 116.25 27.3939 116.25C27.1979 116.25 27.0346 116.185 26.9039 116.054C26.7826 115.914 26.7219 115.741 26.7219 115.536V107.164C26.7219 106.959 26.7919 106.791 26.9319 106.66C27.0719 106.52 27.2399 106.45 27.4359 106.45H30.6699ZM30.6699 111.196C30.9126 111.196 31.1319 111.117 31.3279 110.958C31.5332 110.799 31.6966 110.589 31.8179 110.328C31.9486 110.067 32.0139 109.782 32.0139 109.474C32.0139 109.166 31.9486 108.886 31.8179 108.634C31.6966 108.382 31.5332 108.181 31.3279 108.032C31.1319 107.873 30.9126 107.794 30.6699 107.794H27.9399L28.0799 107.584V111.378L27.9539 111.196H30.6699ZM35.6761 116.25C35.4708 116.25 35.3028 116.185 35.1721 116.054C35.0414 115.914 34.9761 115.741 34.9761 115.536V109.6C34.9761 109.395 35.0414 109.227 35.1721 109.096C35.3028 108.956 35.4708 108.886 35.6761 108.886C35.8721 108.886 36.0354 108.956 36.1661 109.096C36.3061 109.227 36.3761 109.395 36.3761 109.6V111.168L36.2361 110.566C36.3108 110.305 36.4228 110.062 36.5721 109.838C36.7308 109.614 36.9174 109.418 37.1321 109.25C37.3468 109.082 37.5848 108.951 37.8461 108.858C38.1168 108.765 38.3968 108.718 38.6861 108.718C38.9288 108.718 39.1388 108.783 39.3161 108.914C39.4934 109.045 39.5821 109.208 39.5821 109.404C39.5821 109.656 39.5168 109.843 39.3861 109.964C39.2554 110.076 39.1108 110.132 38.9521 110.132C38.8121 110.132 38.6768 110.104 38.5461 110.048C38.4154 109.983 38.2614 109.95 38.0841 109.95C37.8881 109.95 37.6874 110.001 37.4821 110.104C37.2768 110.207 37.0901 110.361 36.9221 110.566C36.7541 110.762 36.6188 110.995 36.5161 111.266C36.4228 111.537 36.3761 111.84 36.3761 112.176V115.536C36.3761 115.741 36.3061 115.914 36.1661 116.054C36.0354 116.185 35.8721 116.25 35.6761 116.25ZM47.5692 112.568C47.5692 113.315 47.4059 113.977 47.0792 114.556C46.7525 115.125 46.3092 115.573 45.7492 115.9C45.1892 116.227 44.5592 116.39 43.8592 116.39C43.1592 116.39 42.5292 116.227 41.9692 115.9C41.4092 115.573 40.9612 115.125 40.6252 114.556C40.2985 113.977 40.1352 113.315 40.1352 112.568C40.1352 111.812 40.2985 111.149 40.6252 110.58C40.9612 110.001 41.4092 109.549 41.9692 109.222C42.5292 108.886 43.1592 108.718 43.8592 108.718C44.5592 108.718 45.1892 108.886 45.7492 109.222C46.3092 109.549 46.7525 110.001 47.0792 110.58C47.4059 111.149 47.5692 111.812 47.5692 112.568ZM46.1692 112.568C46.1692 112.055 46.0665 111.611 45.8612 111.238C45.6559 110.855 45.3759 110.557 45.0212 110.342C44.6759 110.118 44.2885 110.006 43.8592 110.006C43.4299 110.006 43.0379 110.118 42.6832 110.342C42.3285 110.557 42.0485 110.855 41.8432 111.238C41.6379 111.611 41.5352 112.055 41.5352 112.568C41.5352 113.063 41.6379 113.501 41.8432 113.884C42.0485 114.267 42.3285 114.565 42.6832 114.78C43.0379 114.995 43.4299 115.102 43.8592 115.102C44.2885 115.102 44.6759 114.995 45.0212 114.78C45.3759 114.565 45.6559 114.267 45.8612 113.884C46.0665 113.501 46.1692 113.063 46.1692 112.568ZM50.7498 116.558C50.7498 117.062 50.6472 117.496 50.4418 117.86C50.2365 118.224 49.9658 118.504 49.6298 118.7C49.2938 118.896 48.9345 118.994 48.5518 118.994C48.3558 118.994 48.1972 118.929 48.0758 118.798C47.9545 118.677 47.8938 118.527 47.8938 118.35V118.224C47.8938 118.056 47.9545 117.921 48.0758 117.818C48.1878 117.715 48.3278 117.636 48.4958 117.58C48.7105 117.515 48.8785 117.417 48.9998 117.286C49.1305 117.165 49.2192 117.006 49.2658 116.81C49.3218 116.623 49.3498 116.418 49.3498 116.194V109.586C49.3498 109.39 49.4152 109.227 49.5458 109.096C49.6765 108.956 49.8445 108.886 50.0498 108.886C50.2552 108.886 50.4232 108.956 50.5538 109.096C50.6845 109.227 50.7498 109.39 50.7498 109.586V116.558ZM50.0218 107.906C49.7512 107.906 49.5552 107.859 49.4338 107.766C49.3125 107.663 49.2518 107.495 49.2518 107.262V107.038C49.2518 106.805 49.3172 106.641 49.4478 106.548C49.5785 106.455 49.7745 106.408 50.0358 106.408C50.3158 106.408 50.5165 106.459 50.6378 106.562C50.7592 106.655 50.8198 106.814 50.8198 107.038V107.262C50.8198 107.505 50.7545 107.673 50.6238 107.766C50.5025 107.859 50.3018 107.906 50.0218 107.906ZM56.412 116.39C55.6373 116.39 54.9653 116.231 54.396 115.914C53.8266 115.587 53.3833 115.144 53.066 114.584C52.758 114.015 52.604 113.366 52.604 112.638C52.604 111.817 52.7673 111.117 53.094 110.538C53.43 109.95 53.864 109.502 54.396 109.194C54.928 108.877 55.4926 108.718 56.09 108.718C56.5473 108.718 56.9813 108.811 57.392 108.998C57.8026 109.175 58.1666 109.427 58.484 109.754C58.8106 110.071 59.0673 110.449 59.254 110.888C59.4406 111.317 59.5386 111.789 59.548 112.302C59.5386 112.489 59.464 112.643 59.324 112.764C59.184 112.885 59.0206 112.946 58.834 112.946H53.388L53.052 111.756H58.316L58.05 112.008V111.658C58.0313 111.331 57.924 111.047 57.728 110.804C57.532 110.552 57.2893 110.361 57 110.23C56.7106 110.09 56.4073 110.02 56.09 110.02C55.81 110.02 55.5393 110.067 55.278 110.16C55.026 110.244 54.7973 110.384 54.592 110.58C54.396 110.776 54.2373 111.037 54.116 111.364C54.004 111.681 53.948 112.078 53.948 112.554C53.948 113.067 54.0553 113.515 54.27 113.898C54.4846 114.281 54.774 114.579 55.138 114.794C55.502 114.999 55.9033 115.102 56.342 115.102C56.6873 115.102 56.972 115.069 57.196 115.004C57.42 114.929 57.6066 114.841 57.756 114.738C57.9053 114.635 58.036 114.537 58.148 114.444C58.288 114.36 58.428 114.318 58.568 114.318C58.736 114.318 58.876 114.379 58.988 114.5C59.1 114.612 59.156 114.747 59.156 114.906C59.156 115.111 59.0533 115.298 58.848 115.466C58.596 115.709 58.246 115.923 57.798 116.11C57.3593 116.297 56.8973 116.39 56.412 116.39ZM64.3924 108.718C64.8964 108.718 65.3444 108.774 65.7364 108.886C66.1284 108.989 66.4317 109.138 66.6464 109.334C66.8704 109.521 66.9824 109.74 66.9824 109.992C66.9824 110.151 66.9357 110.3 66.8424 110.44C66.7491 110.571 66.6091 110.636 66.4224 110.636C66.2917 110.636 66.1797 110.613 66.0864 110.566C66.0024 110.519 65.9231 110.463 65.8484 110.398C65.7737 110.333 65.6804 110.267 65.5684 110.202C65.4657 110.146 65.3117 110.099 65.1064 110.062C64.9104 110.025 64.7331 110.006 64.5744 110.006C64.0797 110.006 63.6504 110.118 63.2864 110.342C62.9317 110.566 62.6517 110.869 62.4464 111.252C62.2504 111.635 62.1524 112.069 62.1524 112.554C62.1524 113.039 62.2504 113.473 62.4464 113.856C62.6517 114.239 62.9271 114.542 63.2724 114.766C63.6271 114.99 64.0377 115.102 64.5044 115.102C64.7844 115.102 65.0131 115.083 65.1904 115.046C65.3677 114.999 65.5217 114.943 65.6524 114.878C65.7924 114.794 65.9091 114.71 66.0024 114.626C66.1051 114.533 66.2451 114.486 66.4224 114.486C66.6277 114.486 66.7817 114.551 66.8844 114.682C66.9964 114.803 67.0524 114.957 67.0524 115.144C67.0524 115.349 66.9264 115.55 66.6744 115.746C66.4317 115.933 66.1051 116.087 65.6944 116.208C65.2837 116.329 64.8311 116.39 64.3364 116.39C63.6084 116.39 62.9737 116.222 62.4324 115.886C61.9004 115.55 61.4851 115.093 61.1864 114.514C60.8971 113.935 60.7524 113.282 60.7524 112.554C60.7524 111.817 60.9064 111.163 61.2144 110.594C61.5224 110.015 61.9517 109.558 62.5024 109.222C63.0531 108.886 63.6831 108.718 64.3924 108.718ZM68.2922 108.97H71.5822C71.7688 108.97 71.9228 109.035 72.0442 109.166C72.1748 109.287 72.2402 109.441 72.2402 109.628C72.2402 109.805 72.1748 109.955 72.0442 110.076C71.9228 110.197 71.7688 110.258 71.5822 110.258H68.2922C68.1055 110.258 67.9468 110.197 67.8162 110.076C67.6948 109.945 67.6342 109.791 67.6342 109.614C67.6342 109.427 67.6948 109.273 67.8162 109.152C67.9468 109.031 68.1055 108.97 68.2922 108.97ZM69.7622 107.15C69.9675 107.15 70.1355 107.22 70.2662 107.36C70.3968 107.491 70.4622 107.659 70.4622 107.864V114.36C70.4622 114.528 70.4902 114.663 70.5462 114.766C70.6022 114.869 70.6768 114.939 70.7702 114.976C70.8728 115.013 70.9755 115.032 71.0782 115.032C71.1808 115.032 71.2695 115.013 71.3442 114.976C71.4282 114.939 71.5262 114.92 71.6382 114.92C71.7502 114.92 71.8528 114.971 71.9462 115.074C72.0395 115.177 72.0862 115.317 72.0862 115.494C72.0862 115.718 71.9648 115.9 71.7222 116.04C71.4795 116.18 71.2182 116.25 70.9382 116.25C70.7795 116.25 70.5928 116.236 70.3782 116.208C70.1635 116.18 69.9535 116.11 69.7482 115.998C69.5522 115.886 69.3888 115.709 69.2582 115.466C69.1275 115.214 69.0622 114.864 69.0622 114.416V107.864C69.0622 107.659 69.1275 107.491 69.2582 107.36C69.3982 107.22 69.5662 107.15 69.7622 107.15ZM73.63 115.102C73.546 114.971 73.5087 114.822 73.518 114.654C73.5273 114.477 73.6253 114.327 73.812 114.206C73.9427 114.122 74.078 114.089 74.218 114.108C74.3673 114.117 74.5073 114.187 74.638 114.318C74.8993 114.607 75.1887 114.836 75.506 115.004C75.8327 115.172 76.2247 115.256 76.682 115.256C76.8687 115.247 77.06 115.219 77.256 115.172C77.452 115.116 77.62 115.023 77.76 114.892C77.9 114.752 77.97 114.551 77.97 114.29C77.97 114.057 77.8953 113.87 77.746 113.73C77.5967 113.59 77.4007 113.478 77.158 113.394C76.9153 113.301 76.654 113.217 76.374 113.142C76.0753 113.058 75.772 112.965 75.464 112.862C75.1653 112.759 74.8947 112.629 74.652 112.47C74.4093 112.302 74.2087 112.087 74.05 111.826C73.9007 111.565 73.826 111.243 73.826 110.86C73.826 110.421 73.9473 110.043 74.19 109.726C74.442 109.409 74.764 109.161 75.156 108.984C75.5573 108.807 75.9913 108.718 76.458 108.718C76.7287 108.718 77.0133 108.755 77.312 108.83C77.6107 108.895 77.9 109.003 78.18 109.152C78.46 109.301 78.7027 109.497 78.908 109.74C79.0013 109.861 79.0527 110.006 79.062 110.174C79.0807 110.342 79.006 110.491 78.838 110.622C78.726 110.715 78.5907 110.757 78.432 110.748C78.2733 110.739 78.1427 110.687 78.04 110.594C77.8627 110.37 77.634 110.197 77.354 110.076C77.074 109.945 76.7567 109.88 76.402 109.88C76.2247 109.88 76.038 109.908 75.842 109.964C75.6553 110.011 75.4967 110.099 75.366 110.23C75.2353 110.361 75.17 110.552 75.17 110.804C75.17 111.037 75.2447 111.224 75.394 111.364C75.5527 111.504 75.758 111.621 76.01 111.714C76.262 111.807 76.5373 111.891 76.836 111.966C77.1253 112.041 77.41 112.129 77.69 112.232C77.9793 112.335 78.236 112.47 78.46 112.638C78.6933 112.797 78.88 113.007 79.02 113.268C79.1693 113.52 79.244 113.842 79.244 114.234C79.244 114.691 79.1087 115.083 78.838 115.41C78.5767 115.727 78.2407 115.97 77.83 116.138C77.4287 116.306 77.004 116.39 76.556 116.39C76.024 116.39 75.492 116.297 74.96 116.11C74.4373 115.914 73.994 115.578 73.63 115.102ZM88.93 106.45C89.6113 106.45 90.2133 106.581 90.736 106.842C91.2587 107.094 91.6927 107.449 92.038 107.906C92.3927 108.354 92.6587 108.877 92.836 109.474C93.0133 110.062 93.102 110.687 93.102 111.35C93.102 112.255 92.9433 113.081 92.626 113.828C92.3087 114.565 91.842 115.153 91.226 115.592C90.61 116.031 89.8447 116.25 88.93 116.25H85.514C85.318 116.25 85.15 116.185 85.01 116.054C84.87 115.914 84.8 115.741 84.8 115.536V107.164C84.8 106.959 84.87 106.791 85.01 106.66C85.15 106.52 85.318 106.45 85.514 106.45H88.93ZM88.79 114.906C89.4527 114.906 89.9893 114.743 90.4 114.416C90.8107 114.089 91.1093 113.66 91.296 113.128C91.492 112.587 91.59 111.994 91.59 111.35C91.59 110.874 91.534 110.426 91.422 110.006C91.3193 109.577 91.1513 109.199 90.918 108.872C90.694 108.536 90.4047 108.275 90.05 108.088C89.7047 107.892 89.2847 107.794 88.79 107.794H86.144L86.27 107.668V115.046L86.186 114.906H88.79ZM98.2069 116.39C97.4322 116.39 96.7602 116.231 96.1909 115.914C95.6215 115.587 95.1782 115.144 94.8609 114.584C94.5529 114.015 94.3989 113.366 94.3989 112.638C94.3989 111.817 94.5622 111.117 94.8889 110.538C95.2249 109.95 95.6589 109.502 96.1909 109.194C96.7229 108.877 97.2875 108.718 97.8849 108.718C98.3422 108.718 98.7762 108.811 99.1869 108.998C99.5975 109.175 99.9615 109.427 100.279 109.754C100.606 110.071 100.862 110.449 101.049 110.888C101.236 111.317 101.334 111.789 101.343 112.302C101.334 112.489 101.259 112.643 101.119 112.764C100.979 112.885 100.816 112.946 100.629 112.946H95.1829L94.8469 111.756H100.111L99.8449 112.008V111.658C99.8262 111.331 99.7189 111.047 99.5229 110.804C99.3269 110.552 99.0842 110.361 98.7949 110.23C98.5055 110.09 98.2022 110.02 97.8849 110.02C97.6049 110.02 97.3342 110.067 97.0729 110.16C96.8209 110.244 96.5922 110.384 96.3869 110.58C96.1909 110.776 96.0322 111.037 95.9109 111.364C95.7989 111.681 95.7429 112.078 95.7429 112.554C95.7429 113.067 95.8502 113.515 96.0649 113.898C96.2795 114.281 96.5689 114.579 96.9329 114.794C97.2969 114.999 97.6982 115.102 98.1369 115.102C98.4822 115.102 98.7669 115.069 98.9909 115.004C99.2149 114.929 99.4015 114.841 99.5509 114.738C99.7002 114.635 99.8309 114.537 99.9429 114.444C100.083 114.36 100.223 114.318 100.363 114.318C100.531 114.318 100.671 114.379 100.783 114.5C100.895 114.612 100.951 114.747 100.951 114.906C100.951 115.111 100.848 115.298 100.643 115.466C100.391 115.709 100.041 115.923 99.5929 116.11C99.1542 116.297 98.6922 116.39 98.2069 116.39ZM104.437 115.536C104.437 115.741 104.367 115.914 104.227 116.054C104.097 116.185 103.933 116.25 103.737 116.25C103.541 116.25 103.373 116.185 103.233 116.054C103.103 115.914 103.037 115.741 103.037 115.536V106.604C103.037 106.399 103.107 106.231 103.247 106.1C103.387 105.96 103.555 105.89 103.751 105.89C103.957 105.89 104.12 105.96 104.241 106.1C104.372 106.231 104.437 106.399 104.437 106.604V115.536ZM107.837 115.536C107.837 115.741 107.772 115.914 107.641 116.054C107.51 116.185 107.342 116.25 107.137 116.25C106.941 116.25 106.773 116.185 106.633 116.054C106.502 115.914 106.437 115.741 106.437 115.536V109.544C106.437 109.339 106.502 109.171 106.633 109.04C106.773 108.9 106.941 108.83 107.137 108.83C107.342 108.83 107.51 108.9 107.641 109.04C107.772 109.171 107.837 109.339 107.837 109.544V115.536ZM107.123 107.906C106.852 107.906 106.656 107.859 106.535 107.766C106.414 107.663 106.353 107.495 106.353 107.262V107.038C106.353 106.805 106.418 106.641 106.549 106.548C106.68 106.455 106.876 106.408 107.137 106.408C107.417 106.408 107.618 106.459 107.739 106.562C107.86 106.655 107.921 106.814 107.921 107.038V107.262C107.921 107.505 107.856 107.673 107.725 107.766C107.604 107.859 107.403 107.906 107.123 107.906ZM109.888 108.816C110.028 108.816 110.159 108.853 110.28 108.928C110.411 109.003 110.504 109.115 110.56 109.264L112.758 114.346L112.492 114.472L114.718 109.278C114.849 108.97 115.059 108.821 115.348 108.83C115.535 108.83 115.689 108.891 115.81 109.012C115.941 109.124 116.006 109.273 116.006 109.46C116.006 109.516 115.997 109.577 115.978 109.642C115.96 109.698 115.936 109.754 115.908 109.81L113.248 115.802C113.127 116.082 112.926 116.231 112.646 116.25C112.506 116.269 112.366 116.241 112.226 116.166C112.096 116.082 111.993 115.961 111.918 115.802L109.272 109.81C109.254 109.773 109.235 109.726 109.216 109.67C109.198 109.605 109.188 109.53 109.188 109.446C109.188 109.306 109.249 109.166 109.37 109.026C109.501 108.886 109.674 108.816 109.888 108.816ZM120.793 116.39C120.018 116.39 119.346 116.231 118.777 115.914C118.207 115.587 117.764 115.144 117.447 114.584C117.139 114.015 116.985 113.366 116.985 112.638C116.985 111.817 117.148 111.117 117.475 110.538C117.811 109.95 118.245 109.502 118.777 109.194C119.309 108.877 119.873 108.718 120.471 108.718C120.928 108.718 121.362 108.811 121.773 108.998C122.183 109.175 122.547 109.427 122.865 109.754C123.191 110.071 123.448 110.449 123.635 110.888C123.821 111.317 123.919 111.789 123.929 112.302C123.919 112.489 123.845 112.643 123.705 112.764C123.565 112.885 123.401 112.946 123.215 112.946H117.769L117.433 111.756H122.697L122.431 112.008V111.658C122.412 111.331 122.305 111.047 122.109 110.804C121.913 110.552 121.67 110.361 121.381 110.23C121.091 110.09 120.788 110.02 120.471 110.02C120.191 110.02 119.92 110.067 119.659 110.16C119.407 110.244 119.178 110.384 118.973 110.58C118.777 110.776 118.618 111.037 118.497 111.364C118.385 111.681 118.329 112.078 118.329 112.554C118.329 113.067 118.436 113.515 118.651 113.898C118.865 114.281 119.155 114.579 119.519 114.794C119.883 114.999 120.284 115.102 120.723 115.102C121.068 115.102 121.353 115.069 121.577 115.004C121.801 114.929 121.987 114.841 122.137 114.738C122.286 114.635 122.417 114.537 122.529 114.444C122.669 114.36 122.809 114.318 122.949 114.318C123.117 114.318 123.257 114.379 123.369 114.5C123.481 114.612 123.537 114.747 123.537 114.906C123.537 115.111 123.434 115.298 123.229 115.466C122.977 115.709 122.627 115.923 122.179 116.11C121.74 116.297 121.278 116.39 120.793 116.39ZM126.211 116.25C126.006 116.25 125.838 116.185 125.707 116.054C125.577 115.914 125.511 115.741 125.511 115.536V109.6C125.511 109.395 125.577 109.227 125.707 109.096C125.838 108.956 126.006 108.886 126.211 108.886C126.407 108.886 126.571 108.956 126.701 109.096C126.841 109.227 126.911 109.395 126.911 109.6V111.168L126.771 110.566C126.846 110.305 126.958 110.062 127.107 109.838C127.266 109.614 127.453 109.418 127.667 109.25C127.882 109.082 128.12 108.951 128.381 108.858C128.652 108.765 128.932 108.718 129.221 108.718C129.464 108.718 129.674 108.783 129.851 108.914C130.029 109.045 130.117 109.208 130.117 109.404C130.117 109.656 130.052 109.843 129.921 109.964C129.791 110.076 129.646 110.132 129.487 110.132C129.347 110.132 129.212 110.104 129.081 110.048C128.951 109.983 128.797 109.95 128.619 109.95C128.423 109.95 128.223 110.001 128.017 110.104C127.812 110.207 127.625 110.361 127.457 110.566C127.289 110.762 127.154 110.995 127.051 111.266C126.958 111.537 126.911 111.84 126.911 112.176V115.536C126.911 115.741 126.841 115.914 126.701 116.054C126.571 116.185 126.407 116.25 126.211 116.25ZM134.478 116.39C133.704 116.39 133.032 116.231 132.462 115.914C131.893 115.587 131.45 115.144 131.132 114.584C130.824 114.015 130.67 113.366 130.67 112.638C130.67 111.817 130.834 111.117 131.16 110.538C131.496 109.95 131.93 109.502 132.462 109.194C132.994 108.877 133.559 108.718 134.156 108.718C134.614 108.718 135.048 108.811 135.458 108.998C135.869 109.175 136.233 109.427 136.55 109.754C136.877 110.071 137.134 110.449 137.32 110.888C137.507 111.317 137.605 111.789 137.614 112.302C137.605 112.489 137.53 112.643 137.39 112.764C137.25 112.885 137.087 112.946 136.9 112.946H131.454L131.118 111.756H136.382L136.116 112.008V111.658C136.098 111.331 135.99 111.047 135.794 110.804C135.598 110.552 135.356 110.361 135.066 110.23C134.777 110.09 134.474 110.02 134.156 110.02C133.876 110.02 133.606 110.067 133.344 110.16C133.092 110.244 132.864 110.384 132.658 110.58C132.462 110.776 132.304 111.037 132.182 111.364C132.07 111.681 132.014 112.078 132.014 112.554C132.014 113.067 132.122 113.515 132.336 113.898C132.551 114.281 132.84 114.579 133.204 114.794C133.568 114.999 133.97 115.102 134.408 115.102C134.754 115.102 135.038 115.069 135.262 115.004C135.486 114.929 135.673 114.841 135.822 114.738C135.972 114.635 136.102 114.537 136.214 114.444C136.354 114.36 136.494 114.318 136.634 114.318C136.802 114.318 136.942 114.379 137.054 114.5C137.166 114.612 137.222 114.747 137.222 114.906C137.222 115.111 137.12 115.298 136.914 115.466C136.662 115.709 136.312 115.923 135.864 116.11C135.426 116.297 134.964 116.39 134.478 116.39ZM145.231 105.89C145.436 105.89 145.604 105.955 145.735 106.086C145.865 106.217 145.931 106.389 145.931 106.604V115.536C145.931 115.741 145.865 115.914 145.735 116.054C145.604 116.185 145.436 116.25 145.231 116.25C145.035 116.25 144.867 116.185 144.727 116.054C144.596 115.914 144.531 115.741 144.531 115.536V114.528L144.825 114.542C144.825 114.71 144.755 114.901 144.615 115.116C144.484 115.321 144.302 115.522 144.069 115.718C143.835 115.914 143.56 116.077 143.243 116.208C142.925 116.329 142.585 116.39 142.221 116.39C141.577 116.39 140.998 116.227 140.485 115.9C139.971 115.564 139.565 115.111 139.267 114.542C138.968 113.963 138.819 113.301 138.819 112.554C138.819 111.807 138.968 111.149 139.267 110.58C139.565 110.001 139.967 109.549 140.471 109.222C140.984 108.886 141.553 108.718 142.179 108.718C142.571 108.718 142.935 108.783 143.271 108.914C143.616 109.045 143.915 109.213 144.167 109.418C144.419 109.623 144.615 109.843 144.755 110.076C144.895 110.3 144.965 110.515 144.965 110.72L144.531 110.762V106.604C144.531 106.399 144.596 106.231 144.727 106.1C144.867 105.96 145.035 105.89 145.231 105.89ZM142.375 115.102C142.823 115.102 143.21 114.99 143.537 114.766C143.873 114.542 144.134 114.239 144.321 113.856C144.507 113.473 144.601 113.039 144.601 112.554C144.601 112.069 144.507 111.635 144.321 111.252C144.134 110.869 143.873 110.566 143.537 110.342C143.201 110.118 142.813 110.006 142.375 110.006C141.945 110.006 141.563 110.118 141.227 110.342C140.9 110.566 140.639 110.869 140.443 111.252C140.256 111.635 140.163 112.069 140.163 112.554C140.163 113.039 140.256 113.473 140.443 113.856C140.639 114.239 140.9 114.542 141.227 114.766C141.563 114.99 141.945 115.102 142.375 115.102Z" fill="#0A0D12"/>
</svg>
