<svg width="173" height="173" viewBox="0 0 173 173" fill="none" xmlns="http://www.w3.org/2000/svg">
<rect x="1" y="1" width="171.5" height="171.5" rx="85.75" fill="#FAFAFA"/>
<rect x="1" y="1" width="171.5" height="171.5" rx="85.75" stroke="#DEDCDC"/>
<path d="M52.5933 69.75C51.9213 69.75 51.3693 69.546 50.9373 69.138C50.5053 68.706 50.2893 68.178 50.2893 67.554V49.41L50.7933 50.202L48.1653 52.146C47.8293 52.41 47.4093 52.542 46.9053 52.542C46.3293 52.542 45.8253 52.326 45.3933 51.894C44.9613 51.462 44.7453 50.946 44.7453 50.346C44.7453 49.578 45.1173 48.954 45.8613 48.474L51.0453 45.018C51.2853 44.85 51.5493 44.73 51.8373 44.658C52.1493 44.586 52.4373 44.55 52.7013 44.55C53.3973 44.55 53.9493 44.766 54.3573 45.198C54.7653 45.606 54.9693 46.122 54.9693 46.746V67.554C54.9693 68.178 54.7413 68.706 54.2853 69.138C53.8533 69.546 53.2893 69.75 52.5933 69.75ZM68.3495 70.11C66.2855 70.11 64.5335 69.57 63.0935 68.49C61.6775 67.386 60.5975 65.862 59.8535 63.918C59.1095 61.95 58.7375 59.694 58.7375 57.15C58.7375 54.582 59.1095 52.326 59.8535 50.382C60.5975 48.438 61.6775 46.926 63.0935 45.846C64.5335 44.742 66.2855 44.19 68.3495 44.19C70.4135 44.19 72.1535 44.742 73.5695 45.846C75.0095 46.926 76.1015 48.438 76.8455 50.382C77.5895 52.326 77.9615 54.582 77.9615 57.15C77.9615 59.694 77.5895 61.95 76.8455 63.918C76.1015 65.862 75.0095 67.386 73.5695 68.49C72.1535 69.57 70.4135 70.11 68.3495 70.11ZM68.3495 65.79C69.3575 65.79 70.2215 65.478 70.9415 64.854C71.6855 64.206 72.2615 63.246 72.6695 61.974C73.0775 60.678 73.2815 59.07 73.2815 57.15C73.2815 55.206 73.0775 53.598 72.6695 52.326C72.2615 51.054 71.6855 50.106 70.9415 49.482C70.2215 48.834 69.3575 48.51 68.3495 48.51C67.3655 48.51 66.5015 48.834 65.7575 49.482C65.0135 50.106 64.4375 51.054 64.0295 52.326C63.6215 53.598 63.4175 55.206 63.4175 57.15C63.4175 59.07 63.6215 60.678 64.0295 61.974C64.4375 63.246 65.0135 64.206 65.7575 64.854C66.5015 65.478 67.3655 65.79 68.3495 65.79ZM89.7428 70.11C87.6788 70.11 85.9268 69.57 84.4868 68.49C83.0708 67.386 81.9908 65.862 81.2468 63.918C80.5028 61.95 80.1308 59.694 80.1308 57.15C80.1308 54.582 80.5028 52.326 81.2468 50.382C81.9908 48.438 83.0708 46.926 84.4868 45.846C85.9268 44.742 87.6788 44.19 89.7428 44.19C91.8068 44.19 93.5468 44.742 94.9628 45.846C96.4028 46.926 97.4948 48.438 98.2388 50.382C98.9828 52.326 99.3548 54.582 99.3548 57.15C99.3548 59.694 98.9828 61.95 98.2388 63.918C97.4948 65.862 96.4028 67.386 94.9628 68.49C93.5468 69.57 91.8068 70.11 89.7428 70.11ZM89.7428 65.79C90.7508 65.79 91.6148 65.478 92.3348 64.854C93.0788 64.206 93.6548 63.246 94.0628 61.974C94.4708 60.678 94.6748 59.07 94.6748 57.15C94.6748 55.206 94.4708 53.598 94.0628 52.326C93.6548 51.054 93.0788 50.106 92.3348 49.482C91.6148 48.834 90.7508 48.51 89.7428 48.51C88.7588 48.51 87.8948 48.834 87.1508 49.482C86.4068 50.106 85.8308 51.054 85.4228 52.326C85.0148 53.598 84.8108 55.206 84.8108 57.15C84.8108 59.07 85.0148 60.678 85.4228 61.974C85.8308 63.246 86.4068 64.206 87.1508 64.854C87.8948 65.478 88.7588 65.79 89.7428 65.79ZM107.068 58.23C105.916 58.23 104.896 57.918 104.008 57.294C103.12 56.67 102.424 55.83 101.92 54.774C101.416 53.718 101.164 52.542 101.164 51.246C101.164 49.926 101.416 48.738 101.92 47.682C102.424 46.626 103.12 45.786 104.008 45.162C104.896 44.538 105.916 44.226 107.068 44.226C108.244 44.226 109.264 44.538 110.128 45.162C111.016 45.786 111.7 46.626 112.18 47.682C112.684 48.738 112.936 49.926 112.936 51.246C112.936 52.542 112.672 53.718 112.144 54.774C111.616 55.83 110.908 56.67 110.02 57.294C109.156 57.918 108.172 58.23 107.068 58.23ZM107.068 55.026C107.788 55.026 108.34 54.666 108.724 53.946C109.132 53.226 109.336 52.326 109.336 51.246C109.336 50.166 109.144 49.266 108.76 48.546C108.376 47.826 107.812 47.466 107.068 47.466C106.348 47.466 105.784 47.826 105.376 48.546C104.968 49.266 104.764 50.166 104.764 51.246C104.764 52.326 104.956 53.226 105.34 53.946C105.748 54.666 106.324 55.026 107.068 55.026ZM122.512 70.11C121.408 70.11 120.412 69.798 119.524 69.174C118.636 68.55 117.928 67.71 117.4 66.654C116.872 65.598 116.608 64.422 116.608 63.126C116.608 61.806 116.86 60.618 117.364 59.562C117.868 58.506 118.564 57.666 119.452 57.042C120.34 56.418 121.36 56.106 122.512 56.106C123.688 56.106 124.708 56.418 125.572 57.042C126.46 57.666 127.144 58.506 127.624 59.562C128.128 60.618 128.38 61.806 128.38 63.126C128.38 64.422 128.116 65.598 127.588 66.654C127.06 67.71 126.352 68.55 125.464 69.174C124.6 69.798 123.616 70.11 122.512 70.11ZM122.512 66.906C123.232 66.906 123.784 66.546 124.168 65.826C124.576 65.106 124.78 64.206 124.78 63.126C124.78 62.046 124.588 61.146 124.204 60.426C123.82 59.706 123.256 59.346 122.512 59.346C121.792 59.346 121.228 59.706 120.82 60.426C120.412 61.146 120.208 62.046 120.208 63.126C120.208 64.206 120.4 65.106 120.784 65.826C121.192 66.546 121.768 66.906 122.512 66.906ZM107.5 69.822C107.116 69.822 106.708 69.666 106.276 69.354C105.844 69.018 105.628 68.586 105.628 68.058C105.628 67.746 105.748 67.386 105.988 66.978L120.316 45.342C120.748 44.766 121.24 44.478 121.792 44.478C122.2 44.478 122.608 44.634 123.016 44.946C123.448 45.258 123.664 45.69 123.664 46.242C123.664 46.554 123.544 46.914 123.304 47.322L108.976 68.958C108.544 69.534 108.052 69.822 107.5 69.822Z" fill="#FF623E"/>
<path d="M34.4533 93.51C34.6587 93.6127 34.7753 93.7713 34.8033 93.986C34.8407 94.2007 34.7893 94.3967 34.6493 94.574C34.5467 94.714 34.4113 94.7933 34.2433 94.812C34.0847 94.8307 33.926 94.798 33.7673 94.714C33.4967 94.574 33.212 94.462 32.9133 94.378C32.6147 94.294 32.2973 94.252 31.9613 94.252C31.4293 94.252 30.9487 94.3407 30.5193 94.518C30.0993 94.686 29.7353 94.9333 29.4273 95.26C29.1193 95.5773 28.8813 95.9553 28.7133 96.394C28.5547 96.8327 28.4753 97.318 28.4753 97.85C28.4753 98.438 28.564 98.9607 28.7413 99.418C28.9187 99.866 29.1613 100.249 29.4693 100.566C29.7867 100.874 30.1553 101.107 30.5753 101.266C31.0047 101.415 31.4667 101.49 31.9613 101.49C32.2787 101.49 32.5867 101.453 32.8853 101.378C33.1933 101.303 33.4827 101.191 33.7533 101.042C33.9213 100.958 34.0847 100.93 34.2433 100.958C34.4113 100.977 34.5467 101.056 34.6493 101.196C34.808 101.392 34.864 101.593 34.8173 101.798C34.78 101.994 34.6633 102.143 34.4673 102.246C34.234 102.377 33.9773 102.489 33.6973 102.582C33.4173 102.675 33.1327 102.75 32.8433 102.806C32.554 102.862 32.26 102.89 31.9613 102.89C31.2893 102.89 30.6547 102.778 30.0573 102.554C29.46 102.33 28.928 102.003 28.4613 101.574C27.9947 101.145 27.626 100.617 27.3553 99.992C27.094 99.3667 26.9633 98.6527 26.9633 97.85C26.9633 97.1313 27.0847 96.4687 27.3273 95.862C27.5793 95.246 27.9293 94.7187 28.3773 94.28C28.8347 93.832 29.3667 93.4867 29.9733 93.244C30.58 92.992 31.2427 92.866 31.9613 92.866C32.4093 92.866 32.8433 92.922 33.2633 93.034C33.6927 93.146 34.0893 93.3047 34.4533 93.51ZM37.7537 102.036C37.7537 102.241 37.6837 102.414 37.5437 102.554C37.4131 102.685 37.2497 102.75 37.0537 102.75C36.8577 102.75 36.6897 102.685 36.5497 102.554C36.4191 102.414 36.3537 102.241 36.3537 102.036V93.104C36.3537 92.8987 36.4237 92.7307 36.5637 92.6C36.7037 92.46 36.8717 92.39 37.0677 92.39C37.2731 92.39 37.4364 92.46 37.5577 92.6C37.6884 92.7307 37.7537 92.8987 37.7537 93.104V102.036ZM41.1534 102.036C41.1534 102.241 41.0881 102.414 40.9574 102.554C40.8268 102.685 40.6588 102.75 40.4534 102.75C40.2574 102.75 40.0894 102.685 39.9494 102.554C39.8188 102.414 39.7534 102.241 39.7534 102.036V96.044C39.7534 95.8387 39.8188 95.6707 39.9494 95.54C40.0894 95.4 40.2574 95.33 40.4534 95.33C40.6588 95.33 40.8268 95.4 40.9574 95.54C41.0881 95.6707 41.1534 95.8387 41.1534 96.044V102.036ZM40.4394 94.406C40.1688 94.406 39.9728 94.3593 39.8514 94.266C39.7301 94.1633 39.6694 93.9953 39.6694 93.762V93.538C39.6694 93.3047 39.7348 93.1413 39.8654 93.048C39.9961 92.9547 40.1921 92.908 40.4534 92.908C40.7334 92.908 40.9341 92.9593 41.0554 93.062C41.1768 93.1553 41.2374 93.314 41.2374 93.538V93.762C41.2374 94.0047 41.1721 94.1727 41.0414 94.266C40.9201 94.3593 40.7194 94.406 40.4394 94.406ZM46.4666 102.89C45.692 102.89 45.02 102.731 44.4506 102.414C43.8813 102.087 43.438 101.644 43.1206 101.084C42.8126 100.515 42.6586 99.866 42.6586 99.138C42.6586 98.3167 42.822 97.6167 43.1486 97.038C43.4846 96.45 43.9186 96.002 44.4506 95.694C44.9826 95.3767 45.5473 95.218 46.1446 95.218C46.602 95.218 47.036 95.3113 47.4466 95.498C47.8573 95.6753 48.2213 95.9273 48.5386 96.254C48.8653 96.5713 49.122 96.9493 49.3086 97.388C49.4953 97.8173 49.5933 98.2887 49.6026 98.802C49.5933 98.9887 49.5186 99.1427 49.3786 99.264C49.2386 99.3853 49.0753 99.446 48.8886 99.446H43.4426L43.1066 98.256H48.3706L48.1046 98.508V98.158C48.086 97.8313 47.9786 97.5467 47.7826 97.304C47.5866 97.052 47.344 96.8607 47.0546 96.73C46.7653 96.59 46.462 96.52 46.1446 96.52C45.8646 96.52 45.594 96.5667 45.3326 96.66C45.0806 96.744 44.852 96.884 44.6466 97.08C44.4506 97.276 44.292 97.5373 44.1706 97.864C44.0586 98.1813 44.0026 98.578 44.0026 99.054C44.0026 99.5673 44.11 100.015 44.3246 100.398C44.5393 100.781 44.8286 101.079 45.1926 101.294C45.5566 101.499 45.958 101.602 46.3966 101.602C46.742 101.602 47.0266 101.569 47.2506 101.504C47.4746 101.429 47.6613 101.341 47.8106 101.238C47.96 101.135 48.0906 101.037 48.2026 100.944C48.3426 100.86 48.4826 100.818 48.6226 100.818C48.7906 100.818 48.9306 100.879 49.0426 101C49.1546 101.112 49.2106 101.247 49.2106 101.406C49.2106 101.611 49.108 101.798 48.9026 101.966C48.6506 102.209 48.3006 102.423 47.8526 102.61C47.414 102.797 46.952 102.89 46.4666 102.89ZM54.9791 95.218C55.6417 95.218 56.1551 95.358 56.5191 95.638C56.8831 95.9087 57.1351 96.2773 57.2751 96.744C57.4244 97.2013 57.4991 97.7147 57.4991 98.284V102.036C57.4991 102.241 57.4291 102.414 57.2891 102.554C57.1584 102.685 56.9951 102.75 56.7991 102.75C56.5937 102.75 56.4257 102.685 56.2951 102.554C56.1644 102.414 56.0991 102.241 56.0991 102.036V98.298C56.0991 97.962 56.0524 97.6633 55.9591 97.402C55.8657 97.1313 55.7024 96.9167 55.4691 96.758C55.2451 96.59 54.9277 96.506 54.5171 96.506C54.1344 96.506 53.7984 96.59 53.5091 96.758C53.2197 96.9167 52.9911 97.1313 52.8231 97.402C52.6644 97.6633 52.5851 97.962 52.5851 98.298V102.036C52.5851 102.241 52.5151 102.414 52.3751 102.554C52.2444 102.685 52.0811 102.75 51.8851 102.75C51.6797 102.75 51.5117 102.685 51.3811 102.554C51.2504 102.414 51.1851 102.241 51.1851 102.036V96.1C51.1851 95.8947 51.2504 95.7267 51.3811 95.596C51.5117 95.456 51.6797 95.386 51.8851 95.386C52.0811 95.386 52.2444 95.456 52.3751 95.596C52.5151 95.7267 52.5851 95.8947 52.5851 96.1V96.884L52.3331 97.024C52.3984 96.8187 52.5104 96.6133 52.6691 96.408C52.8371 96.1933 53.0377 95.9973 53.2711 95.82C53.5044 95.6333 53.7657 95.4887 54.0551 95.386C54.3444 95.274 54.6524 95.218 54.9791 95.218ZM59.3449 95.47H62.6349C62.8216 95.47 62.9756 95.5353 63.0969 95.666C63.2276 95.7873 63.2929 95.9413 63.2929 96.128C63.2929 96.3053 63.2276 96.4547 63.0969 96.576C62.9756 96.6973 62.8216 96.758 62.6349 96.758H59.3449C59.1582 96.758 58.9996 96.6973 58.8689 96.576C58.7476 96.4453 58.6869 96.2913 58.6869 96.114C58.6869 95.9273 58.7476 95.7733 58.8689 95.652C58.9996 95.5307 59.1582 95.47 59.3449 95.47ZM60.8149 93.65C61.0202 93.65 61.1882 93.72 61.3189 93.86C61.4496 93.9907 61.5149 94.1587 61.5149 94.364V100.86C61.5149 101.028 61.5429 101.163 61.5989 101.266C61.6549 101.369 61.7296 101.439 61.8229 101.476C61.9256 101.513 62.0282 101.532 62.1309 101.532C62.2336 101.532 62.3222 101.513 62.3969 101.476C62.4809 101.439 62.5789 101.42 62.6909 101.42C62.8029 101.42 62.9056 101.471 62.9989 101.574C63.0922 101.677 63.1389 101.817 63.1389 101.994C63.1389 102.218 63.0176 102.4 62.7749 102.54C62.5322 102.68 62.2709 102.75 61.9909 102.75C61.8322 102.75 61.6456 102.736 61.4309 102.708C61.2162 102.68 61.0062 102.61 60.8009 102.498C60.6049 102.386 60.4416 102.209 60.3109 101.966C60.1802 101.714 60.1149 101.364 60.1149 100.916V94.364C60.1149 94.1587 60.1802 93.9907 60.3109 93.86C60.4509 93.72 60.6189 93.65 60.8149 93.65ZM71.9038 102.89C71.2318 102.89 70.6344 102.797 70.1118 102.61C69.5891 102.423 69.0898 102.115 68.6138 101.686C68.5111 101.611 68.4318 101.523 68.3758 101.42C68.3291 101.308 68.3058 101.196 68.3058 101.084C68.3058 100.907 68.3711 100.748 68.5018 100.608C68.6324 100.468 68.7958 100.398 68.9918 100.398C69.1411 100.398 69.2811 100.449 69.4118 100.552C69.7664 100.879 70.1351 101.126 70.5178 101.294C70.9098 101.462 71.3671 101.546 71.8898 101.546C72.2631 101.546 72.6038 101.485 72.9118 101.364C73.2291 101.243 73.4811 101.079 73.6678 100.874C73.8544 100.669 73.9478 100.431 73.9478 100.16C73.9478 99.824 73.8498 99.5487 73.6538 99.334C73.4671 99.11 73.1918 98.928 72.8278 98.788C72.4731 98.6387 72.0438 98.5127 71.5398 98.41C71.0731 98.326 70.6531 98.2093 70.2798 98.06C69.9158 97.9107 69.6031 97.724 69.3418 97.5C69.0804 97.2667 68.8798 96.9913 68.7398 96.674C68.5998 96.3567 68.5298 95.988 68.5298 95.568C68.5298 94.9987 68.6791 94.5087 68.9778 94.098C69.2764 93.6873 69.6824 93.37 70.1958 93.146C70.7091 92.922 71.2878 92.81 71.9318 92.81C72.5198 92.81 73.0704 92.9033 73.5838 93.09C74.0971 93.2673 74.5124 93.51 74.8298 93.818C75.0538 94.014 75.1658 94.224 75.1658 94.448C75.1658 94.616 75.0958 94.7747 74.9558 94.924C74.8251 95.064 74.6711 95.134 74.4938 95.134C74.3631 95.134 74.2511 95.0967 74.1578 95.022C74.0084 94.8633 73.8078 94.7233 73.5558 94.602C73.3038 94.4713 73.0331 94.364 72.7438 94.28C72.4638 94.196 72.1931 94.154 71.9318 94.154C71.5118 94.154 71.1524 94.2147 70.8538 94.336C70.5551 94.448 70.3264 94.6067 70.1678 94.812C70.0091 95.008 69.9298 95.2413 69.9298 95.512C69.9298 95.8293 70.0184 96.0907 70.1958 96.296C70.3824 96.5013 70.6391 96.6693 70.9658 96.8C71.2924 96.9213 71.6658 97.0333 72.0858 97.136C72.5991 97.248 73.0564 97.374 73.4578 97.514C73.8684 97.654 74.2138 97.836 74.4938 98.06C74.7738 98.2747 74.9884 98.5453 75.1378 98.872C75.2871 99.1987 75.3618 99.6047 75.3618 100.09C75.3618 100.65 75.2031 101.14 74.8858 101.56C74.5684 101.98 74.1484 102.307 73.6258 102.54C73.1124 102.773 72.5384 102.89 71.9038 102.89ZM82.9632 95.274C83.1686 95.274 83.3366 95.344 83.4672 95.484C83.5979 95.6147 83.6632 95.7827 83.6632 95.988V102.036C83.6632 102.241 83.5979 102.414 83.4672 102.554C83.3366 102.685 83.1686 102.75 82.9632 102.75C82.7672 102.75 82.5992 102.685 82.4592 102.554C82.3286 102.414 82.2632 102.241 82.2632 102.036V101.028L82.5572 101.07C82.5572 101.238 82.4872 101.425 82.3472 101.63C82.2166 101.835 82.0346 102.036 81.8012 102.232C81.5679 102.419 81.2926 102.577 80.9752 102.708C80.6579 102.829 80.3172 102.89 79.9532 102.89C79.3092 102.89 78.7306 102.727 78.2172 102.4C77.7039 102.064 77.2979 101.607 76.9992 101.028C76.7006 100.449 76.5512 99.7913 76.5512 99.054C76.5512 98.298 76.7006 97.6353 76.9992 97.066C77.2979 96.4873 77.6992 96.0347 78.2032 95.708C78.7166 95.3813 79.2859 95.218 79.9112 95.218C80.3126 95.218 80.6812 95.2833 81.0172 95.414C81.3626 95.5447 81.6612 95.7127 81.9132 95.918C82.1652 96.1233 82.3566 96.3427 82.4872 96.576C82.6272 96.8 82.6972 97.0147 82.6972 97.22L82.2632 97.262V95.988C82.2632 95.792 82.3286 95.624 82.4592 95.484C82.5992 95.344 82.7672 95.274 82.9632 95.274ZM80.1072 101.602C80.5459 101.602 80.9332 101.49 81.2692 101.266C81.6052 101.042 81.8666 100.739 82.0532 100.356C82.2399 99.964 82.3332 99.53 82.3332 99.054C82.3332 98.5687 82.2399 98.1347 82.0532 97.752C81.8666 97.3693 81.6052 97.066 81.2692 96.842C80.9332 96.618 80.5459 96.506 80.1072 96.506C79.6779 96.506 79.2952 96.618 78.9592 96.842C78.6326 97.066 78.3712 97.3693 78.1752 97.752C77.9886 98.1347 77.8952 98.5687 77.8952 99.054C77.8952 99.53 77.9886 99.964 78.1752 100.356C78.3712 100.739 78.6326 101.042 78.9592 101.266C79.2952 101.49 79.6779 101.602 80.1072 101.602ZM85.5265 95.47H88.8165C89.0032 95.47 89.1572 95.5353 89.2785 95.666C89.4092 95.7873 89.4745 95.9413 89.4745 96.128C89.4745 96.3053 89.4092 96.4547 89.2785 96.576C89.1572 96.6973 89.0032 96.758 88.8165 96.758H85.5265C85.3399 96.758 85.1812 96.6973 85.0505 96.576C84.9292 96.4453 84.8685 96.2913 84.8685 96.114C84.8685 95.9273 84.9292 95.7733 85.0505 95.652C85.1812 95.5307 85.3399 95.47 85.5265 95.47ZM86.9965 93.65C87.2019 93.65 87.3699 93.72 87.5005 93.86C87.6312 93.9907 87.6965 94.1587 87.6965 94.364V100.86C87.6965 101.028 87.7245 101.163 87.7805 101.266C87.8365 101.369 87.9112 101.439 88.0045 101.476C88.1072 101.513 88.2099 101.532 88.3125 101.532C88.4152 101.532 88.5039 101.513 88.5785 101.476C88.6625 101.439 88.7605 101.42 88.8725 101.42C88.9845 101.42 89.0872 101.471 89.1805 101.574C89.2739 101.677 89.3205 101.817 89.3205 101.994C89.3205 102.218 89.1992 102.4 88.9565 102.54C88.7139 102.68 88.4525 102.75 88.1725 102.75C88.0139 102.75 87.8272 102.736 87.6125 102.708C87.3979 102.68 87.1879 102.61 86.9825 102.498C86.7865 102.386 86.6232 102.209 86.4925 101.966C86.3619 101.714 86.2965 101.364 86.2965 100.916V94.364C86.2965 94.1587 86.3619 93.9907 86.4925 93.86C86.6325 93.72 86.8005 93.65 86.9965 93.65ZM92.3409 102.036C92.3409 102.241 92.2756 102.414 92.1449 102.554C92.0143 102.685 91.8463 102.75 91.6409 102.75C91.4449 102.75 91.2769 102.685 91.1369 102.554C91.0063 102.414 90.9409 102.241 90.9409 102.036V96.044C90.9409 95.8387 91.0063 95.6707 91.1369 95.54C91.2769 95.4 91.4449 95.33 91.6409 95.33C91.8463 95.33 92.0143 95.4 92.1449 95.54C92.2756 95.6707 92.3409 95.8387 92.3409 96.044V102.036ZM91.6269 94.406C91.3563 94.406 91.1603 94.3593 91.0389 94.266C90.9176 94.1633 90.8569 93.9953 90.8569 93.762V93.538C90.8569 93.3047 90.9223 93.1413 91.0529 93.048C91.1836 92.9547 91.3796 92.908 91.6409 92.908C91.9209 92.908 92.1216 92.9593 92.2429 93.062C92.3643 93.1553 92.4249 93.314 92.4249 93.538V93.762C92.4249 94.0047 92.3596 94.1727 92.2289 94.266C92.1076 94.3593 91.9069 94.406 91.6269 94.406ZM93.7901 101.602C93.7061 101.471 93.6688 101.322 93.6781 101.154C93.6875 100.977 93.7855 100.827 93.9721 100.706C94.1028 100.622 94.2381 100.589 94.3781 100.608C94.5275 100.617 94.6675 100.687 94.7981 100.818C95.0595 101.107 95.3488 101.336 95.6661 101.504C95.9928 101.672 96.3848 101.756 96.8421 101.756C97.0288 101.747 97.2201 101.719 97.4161 101.672C97.6121 101.616 97.7801 101.523 97.9201 101.392C98.0601 101.252 98.1301 101.051 98.1301 100.79C98.1301 100.557 98.0555 100.37 97.9061 100.23C97.7568 100.09 97.5608 99.978 97.3181 99.894C97.0755 99.8007 96.8141 99.7167 96.5341 99.642C96.2355 99.558 95.9321 99.4647 95.6241 99.362C95.3255 99.2593 95.0548 99.1287 94.8121 98.97C94.5695 98.802 94.3688 98.5873 94.2101 98.326C94.0608 98.0647 93.9861 97.7427 93.9861 97.36C93.9861 96.9213 94.1075 96.5433 94.3501 96.226C94.6021 95.9087 94.9241 95.6613 95.3161 95.484C95.7175 95.3067 96.1515 95.218 96.6181 95.218C96.8888 95.218 97.1735 95.2553 97.4721 95.33C97.7708 95.3953 98.0601 95.5027 98.3401 95.652C98.6201 95.8013 98.8628 95.9973 99.0681 96.24C99.1615 96.3613 99.2128 96.506 99.2221 96.674C99.2408 96.842 99.1661 96.9913 98.9981 97.122C98.8861 97.2153 98.7508 97.2573 98.5921 97.248C98.4335 97.2387 98.3028 97.1873 98.2001 97.094C98.0228 96.87 97.7941 96.6973 97.5141 96.576C97.2341 96.4453 96.9168 96.38 96.5621 96.38C96.3848 96.38 96.1981 96.408 96.0021 96.464C95.8155 96.5107 95.6568 96.5993 95.5261 96.73C95.3955 96.8607 95.3301 97.052 95.3301 97.304C95.3301 97.5373 95.4048 97.724 95.5541 97.864C95.7128 98.004 95.9181 98.1207 96.1701 98.214C96.4221 98.3073 96.6975 98.3913 96.9961 98.466C97.2855 98.5407 97.5701 98.6293 97.8501 98.732C98.1395 98.8347 98.3961 98.97 98.6201 99.138C98.8535 99.2967 99.0401 99.5067 99.1801 99.768C99.3295 100.02 99.4041 100.342 99.4041 100.734C99.4041 101.191 99.2688 101.583 98.9981 101.91C98.7368 102.227 98.4008 102.47 97.9901 102.638C97.5888 102.806 97.1641 102.89 96.7161 102.89C96.1841 102.89 95.6521 102.797 95.1201 102.61C94.5975 102.414 94.1541 102.078 93.7901 101.602ZM104.34 92.404C104.517 92.404 104.699 92.4273 104.886 92.474C105.072 92.5207 105.226 92.6 105.348 92.712C105.478 92.8147 105.544 92.9593 105.544 93.146C105.544 93.3327 105.488 93.4867 105.376 93.608C105.264 93.72 105.133 93.776 104.984 93.776C104.89 93.776 104.764 93.7573 104.606 93.72C104.447 93.6733 104.288 93.65 104.13 93.65C103.915 93.65 103.742 93.7013 103.612 93.804C103.481 93.8973 103.388 94.0187 103.332 94.168C103.276 94.308 103.248 94.448 103.248 94.588V102.036C103.248 102.241 103.178 102.414 103.038 102.554C102.907 102.685 102.744 102.75 102.548 102.75C102.342 102.75 102.174 102.685 102.044 102.554C101.913 102.414 101.848 102.241 101.848 102.036V94.602C101.848 93.958 102.058 93.4307 102.478 93.02C102.907 92.6093 103.528 92.404 104.34 92.404ZM104.62 95.512C104.806 95.512 104.96 95.5727 105.082 95.694C105.203 95.8153 105.264 95.9693 105.264 96.156C105.264 96.3427 105.203 96.4967 105.082 96.618C104.96 96.7393 104.806 96.8 104.62 96.8H100.994C100.816 96.8 100.662 96.7393 100.532 96.618C100.41 96.4967 100.35 96.3427 100.35 96.156C100.35 95.9693 100.41 95.8153 100.532 95.694C100.662 95.5727 100.816 95.512 100.994 95.512H104.62ZM112.7 95.274C112.905 95.274 113.073 95.344 113.204 95.484C113.334 95.6147 113.4 95.7827 113.4 95.988V102.036C113.4 102.241 113.334 102.414 113.204 102.554C113.073 102.685 112.905 102.75 112.7 102.75C112.504 102.75 112.336 102.685 112.196 102.554C112.065 102.414 112 102.241 112 102.036V101.028L112.294 101.07C112.294 101.238 112.224 101.425 112.084 101.63C111.953 101.835 111.771 102.036 111.538 102.232C111.304 102.419 111.029 102.577 110.712 102.708C110.394 102.829 110.054 102.89 109.69 102.89C109.046 102.89 108.467 102.727 107.954 102.4C107.44 102.064 107.034 101.607 106.736 101.028C106.437 100.449 106.288 99.7913 106.288 99.054C106.288 98.298 106.437 97.6353 106.736 97.066C107.034 96.4873 107.436 96.0347 107.94 95.708C108.453 95.3813 109.022 95.218 109.648 95.218C110.049 95.218 110.418 95.2833 110.754 95.414C111.099 95.5447 111.398 95.7127 111.65 95.918C111.902 96.1233 112.093 96.3427 112.224 96.576C112.364 96.8 112.434 97.0147 112.434 97.22L112 97.262V95.988C112 95.792 112.065 95.624 112.196 95.484C112.336 95.344 112.504 95.274 112.7 95.274ZM109.844 101.602C110.282 101.602 110.67 101.49 111.006 101.266C111.342 101.042 111.603 100.739 111.79 100.356C111.976 99.964 112.07 99.53 112.07 99.054C112.07 98.5687 111.976 98.1347 111.79 97.752C111.603 97.3693 111.342 97.066 111.006 96.842C110.67 96.618 110.282 96.506 109.844 96.506C109.414 96.506 109.032 96.618 108.696 96.842C108.369 97.066 108.108 97.3693 107.912 97.752C107.725 98.1347 107.632 98.5687 107.632 99.054C107.632 99.53 107.725 99.964 107.912 100.356C108.108 100.739 108.369 101.042 108.696 101.266C109.032 101.49 109.414 101.602 109.844 101.602ZM118.623 95.218C119.127 95.218 119.575 95.274 119.967 95.386C120.359 95.4887 120.662 95.638 120.877 95.834C121.101 96.0207 121.213 96.24 121.213 96.492C121.213 96.6507 121.166 96.8 121.073 96.94C120.98 97.0707 120.84 97.136 120.653 97.136C120.522 97.136 120.41 97.1127 120.317 97.066C120.233 97.0193 120.154 96.9633 120.079 96.898C120.004 96.8327 119.911 96.7673 119.799 96.702C119.696 96.646 119.542 96.5993 119.337 96.562C119.141 96.5247 118.964 96.506 118.805 96.506C118.31 96.506 117.881 96.618 117.517 96.842C117.162 97.066 116.882 97.3693 116.677 97.752C116.481 98.1347 116.383 98.5687 116.383 99.054C116.383 99.5393 116.481 99.9733 116.677 100.356C116.882 100.739 117.158 101.042 117.503 101.266C117.858 101.49 118.268 101.602 118.735 101.602C119.015 101.602 119.244 101.583 119.421 101.546C119.598 101.499 119.752 101.443 119.883 101.378C120.023 101.294 120.14 101.21 120.233 101.126C120.336 101.033 120.476 100.986 120.653 100.986C120.858 100.986 121.012 101.051 121.115 101.182C121.227 101.303 121.283 101.457 121.283 101.644C121.283 101.849 121.157 102.05 120.905 102.246C120.662 102.433 120.336 102.587 119.925 102.708C119.514 102.829 119.062 102.89 118.567 102.89C117.839 102.89 117.204 102.722 116.663 102.386C116.131 102.05 115.716 101.593 115.417 101.014C115.128 100.435 114.983 99.782 114.983 99.054C114.983 98.3167 115.137 97.6633 115.445 97.094C115.753 96.5153 116.182 96.058 116.733 95.722C117.284 95.386 117.914 95.218 118.623 95.218ZM122.523 95.47H125.813C125.999 95.47 126.153 95.5353 126.275 95.666C126.405 95.7873 126.471 95.9413 126.471 96.128C126.471 96.3053 126.405 96.4547 126.275 96.576C126.153 96.6973 125.999 96.758 125.813 96.758H122.523C122.336 96.758 122.177 96.6973 122.047 96.576C121.925 96.4453 121.865 96.2913 121.865 96.114C121.865 95.9273 121.925 95.7733 122.047 95.652C122.177 95.5307 122.336 95.47 122.523 95.47ZM123.993 93.65C124.198 93.65 124.366 93.72 124.497 93.86C124.627 93.9907 124.693 94.1587 124.693 94.364V100.86C124.693 101.028 124.721 101.163 124.777 101.266C124.833 101.369 124.907 101.439 125.001 101.476C125.103 101.513 125.206 101.532 125.309 101.532C125.411 101.532 125.5 101.513 125.575 101.476C125.659 101.439 125.757 101.42 125.869 101.42C125.981 101.42 126.083 101.471 126.177 101.574C126.27 101.677 126.317 101.817 126.317 101.994C126.317 102.218 126.195 102.4 125.953 102.54C125.71 102.68 125.449 102.75 125.169 102.75C125.01 102.75 124.823 102.736 124.609 102.708C124.394 102.68 124.184 102.61 123.979 102.498C123.783 102.386 123.619 102.209 123.489 101.966C123.358 101.714 123.293 101.364 123.293 100.916V94.364C123.293 94.1587 123.358 93.9907 123.489 93.86C123.629 93.72 123.797 93.65 123.993 93.65ZM129.337 102.036C129.337 102.241 129.272 102.414 129.141 102.554C129.01 102.685 128.842 102.75 128.637 102.75C128.441 102.75 128.273 102.685 128.133 102.554C128.002 102.414 127.937 102.241 127.937 102.036V96.044C127.937 95.8387 128.002 95.6707 128.133 95.54C128.273 95.4 128.441 95.33 128.637 95.33C128.842 95.33 129.01 95.4 129.141 95.54C129.272 95.6707 129.337 95.8387 129.337 96.044V102.036ZM128.623 94.406C128.352 94.406 128.156 94.3593 128.035 94.266C127.914 94.1633 127.853 93.9953 127.853 93.762V93.538C127.853 93.3047 127.918 93.1413 128.049 93.048C128.18 92.9547 128.376 92.908 128.637 92.908C128.917 92.908 129.118 92.9593 129.239 93.062C129.36 93.1553 129.421 93.314 129.421 93.538V93.762C129.421 94.0047 129.356 94.1727 129.225 94.266C129.104 94.3593 128.903 94.406 128.623 94.406ZM138.276 99.068C138.276 99.8147 138.113 100.477 137.786 101.056C137.46 101.625 137.016 102.073 136.456 102.4C135.896 102.727 135.266 102.89 134.566 102.89C133.866 102.89 133.236 102.727 132.676 102.4C132.116 102.073 131.668 101.625 131.332 101.056C131.006 100.477 130.842 99.8147 130.842 99.068C130.842 98.312 131.006 97.6493 131.332 97.08C131.668 96.5013 132.116 96.0487 132.676 95.722C133.236 95.386 133.866 95.218 134.566 95.218C135.266 95.218 135.896 95.386 136.456 95.722C137.016 96.0487 137.46 96.5013 137.786 97.08C138.113 97.6493 138.276 98.312 138.276 99.068ZM136.876 99.068C136.876 98.5547 136.774 98.1113 136.568 97.738C136.363 97.3553 136.083 97.0567 135.728 96.842C135.383 96.618 134.996 96.506 134.566 96.506C134.137 96.506 133.745 96.618 133.39 96.842C133.036 97.0567 132.756 97.3553 132.55 97.738C132.345 98.1113 132.242 98.5547 132.242 99.068C132.242 99.5627 132.345 100.001 132.55 100.384C132.756 100.767 133.036 101.065 133.39 101.28C133.745 101.495 134.137 101.602 134.566 101.602C134.996 101.602 135.383 101.495 135.728 101.28C136.083 101.065 136.363 100.767 136.568 100.384C136.774 100.001 136.876 99.5627 136.876 99.068ZM143.655 95.218C144.318 95.218 144.831 95.358 145.195 95.638C145.559 95.9087 145.811 96.2773 145.951 96.744C146.1 97.2013 146.175 97.7147 146.175 98.284V102.036C146.175 102.241 146.105 102.414 145.965 102.554C145.834 102.685 145.671 102.75 145.475 102.75C145.27 102.75 145.102 102.685 144.971 102.554C144.84 102.414 144.775 102.241 144.775 102.036V98.298C144.775 97.962 144.728 97.6633 144.635 97.402C144.542 97.1313 144.378 96.9167 144.145 96.758C143.921 96.59 143.604 96.506 143.193 96.506C142.81 96.506 142.474 96.59 142.185 96.758C141.896 96.9167 141.667 97.1313 141.499 97.402C141.34 97.6633 141.261 97.962 141.261 98.298V102.036C141.261 102.241 141.191 102.414 141.051 102.554C140.92 102.685 140.757 102.75 140.561 102.75C140.356 102.75 140.188 102.685 140.057 102.554C139.926 102.414 139.861 102.241 139.861 102.036V96.1C139.861 95.8947 139.926 95.7267 140.057 95.596C140.188 95.456 140.356 95.386 140.561 95.386C140.757 95.386 140.92 95.456 141.051 95.596C141.191 95.7267 141.261 95.8947 141.261 96.1V96.884L141.009 97.024C141.074 96.8187 141.186 96.6133 141.345 96.408C141.513 96.1933 141.714 95.9973 141.947 95.82C142.18 95.6333 142.442 95.4887 142.731 95.386C143.02 95.274 143.328 95.218 143.655 95.218ZM72.8441 130.75C72.6201 130.75 72.4241 130.685 72.2561 130.554C72.0881 130.414 72.0041 130.241 72.0041 130.036V121.664C72.0041 121.459 72.0741 121.291 72.2141 121.16C72.3541 121.02 72.5221 120.95 72.7181 120.95H76.6661C77.1701 120.95 77.6321 121.076 78.0521 121.328C78.4721 121.571 78.8081 121.911 79.0601 122.35C79.3215 122.779 79.4521 123.274 79.4521 123.834C79.4521 124.207 79.3775 124.567 79.2281 124.912C79.0788 125.248 78.8781 125.547 78.6261 125.808C78.3741 126.069 78.0895 126.265 77.7721 126.396L77.6181 126.13C77.9075 126.233 78.1595 126.382 78.3741 126.578C78.5888 126.765 78.7568 126.989 78.8781 127.25C79.0088 127.502 79.0788 127.791 79.0881 128.118C79.1161 128.407 79.1395 128.65 79.1581 128.846C79.1861 129.033 79.2235 129.187 79.2701 129.308C79.3168 129.429 79.4008 129.523 79.5221 129.588C79.6901 129.681 79.7928 129.821 79.8301 130.008C79.8768 130.195 79.8395 130.363 79.7181 130.512C79.6341 130.624 79.5268 130.699 79.3961 130.736C79.2748 130.764 79.1488 130.769 79.0181 130.75C78.8875 130.722 78.7755 130.685 78.6821 130.638C78.5328 130.545 78.3788 130.414 78.2201 130.246C78.0708 130.069 77.9495 129.826 77.8561 129.518C77.7628 129.21 77.7161 128.804 77.7161 128.3C77.7161 128.067 77.6788 127.866 77.6041 127.698C77.5295 127.53 77.4268 127.395 77.2961 127.292C77.1655 127.18 77.0115 127.101 76.8341 127.054C76.6568 126.998 76.4608 126.97 76.2461 126.97H73.2781L73.4741 126.69V130.036C73.4741 130.241 73.4181 130.414 73.3061 130.554C73.1941 130.685 73.0401 130.75 72.8441 130.75ZM73.2921 125.752H76.6381C76.8528 125.743 77.0581 125.659 77.2541 125.5C77.4595 125.332 77.6228 125.108 77.7441 124.828C77.8748 124.548 77.9401 124.231 77.9401 123.876C77.9401 123.428 77.8048 123.055 77.5341 122.756C77.2728 122.448 76.9601 122.294 76.5961 122.294H73.3201L73.4741 121.93V126.046L73.2921 125.752ZM87.4681 123.274C87.6734 123.274 87.8414 123.344 87.9721 123.484C88.1028 123.615 88.1681 123.783 88.1681 123.988V130.036C88.1681 130.241 88.1028 130.414 87.9721 130.554C87.8414 130.685 87.6734 130.75 87.4681 130.75C87.2721 130.75 87.1041 130.685 86.9641 130.554C86.8334 130.414 86.7681 130.241 86.7681 130.036V129.028L87.0621 129.07C87.0621 129.238 86.9921 129.425 86.8521 129.63C86.7214 129.835 86.5394 130.036 86.3061 130.232C86.0728 130.419 85.7974 130.577 85.4801 130.708C85.1628 130.829 84.8221 130.89 84.4581 130.89C83.8141 130.89 83.2354 130.727 82.7221 130.4C82.2088 130.064 81.8028 129.607 81.5041 129.028C81.2054 128.449 81.0561 127.791 81.0561 127.054C81.0561 126.298 81.2054 125.635 81.5041 125.066C81.8028 124.487 82.2041 124.035 82.7081 123.708C83.2214 123.381 83.7908 123.218 84.4161 123.218C84.8174 123.218 85.1861 123.283 85.5221 123.414C85.8674 123.545 86.1661 123.713 86.4181 123.918C86.6701 124.123 86.8614 124.343 86.9921 124.576C87.1321 124.8 87.2021 125.015 87.2021 125.22L86.7681 125.262V123.988C86.7681 123.792 86.8334 123.624 86.9641 123.484C87.1041 123.344 87.2721 123.274 87.4681 123.274ZM84.6121 129.602C85.0508 129.602 85.4381 129.49 85.7741 129.266C86.1101 129.042 86.3714 128.739 86.5581 128.356C86.7448 127.964 86.8381 127.53 86.8381 127.054C86.8381 126.569 86.7448 126.135 86.5581 125.752C86.3714 125.369 86.1101 125.066 85.7741 124.842C85.4381 124.618 85.0508 124.506 84.6121 124.506C84.1828 124.506 83.8001 124.618 83.4641 124.842C83.1374 125.066 82.8761 125.369 82.6801 125.752C82.4934 126.135 82.4001 126.569 82.4001 127.054C82.4001 127.53 82.4934 127.964 82.6801 128.356C82.8761 128.739 83.1374 129.042 83.4641 129.266C83.8001 129.49 84.1828 129.602 84.6121 129.602ZM90.0314 123.47H93.3214C93.5081 123.47 93.6621 123.535 93.7834 123.666C93.9141 123.787 93.9794 123.941 93.9794 124.128C93.9794 124.305 93.9141 124.455 93.7834 124.576C93.6621 124.697 93.5081 124.758 93.3214 124.758H90.0314C89.8447 124.758 89.6861 124.697 89.5554 124.576C89.4341 124.445 89.3734 124.291 89.3734 124.114C89.3734 123.927 89.4341 123.773 89.5554 123.652C89.6861 123.531 89.8447 123.47 90.0314 123.47ZM91.5014 121.65C91.7067 121.65 91.8747 121.72 92.0054 121.86C92.1361 121.991 92.2014 122.159 92.2014 122.364V128.86C92.2014 129.028 92.2294 129.163 92.2854 129.266C92.3414 129.369 92.4161 129.439 92.5094 129.476C92.6121 129.513 92.7147 129.532 92.8174 129.532C92.9201 129.532 93.0087 129.513 93.0834 129.476C93.1674 129.439 93.2654 129.42 93.3774 129.42C93.4894 129.42 93.5921 129.471 93.6854 129.574C93.7787 129.677 93.8254 129.817 93.8254 129.994C93.8254 130.218 93.7041 130.4 93.4614 130.54C93.2187 130.68 92.9574 130.75 92.6774 130.75C92.5187 130.75 92.3321 130.736 92.1174 130.708C91.9027 130.68 91.6927 130.61 91.4874 130.498C91.2914 130.386 91.1281 130.209 90.9974 129.966C90.8667 129.714 90.8014 129.364 90.8014 128.916V122.364C90.8014 122.159 90.8667 121.991 90.9974 121.86C91.1374 121.72 91.3054 121.65 91.5014 121.65ZM98.8914 130.89C98.1168 130.89 97.4448 130.731 96.8754 130.414C96.3061 130.087 95.8628 129.644 95.5454 129.084C95.2374 128.515 95.0834 127.866 95.0834 127.138C95.0834 126.317 95.2468 125.617 95.5734 125.038C95.9094 124.45 96.3434 124.002 96.8754 123.694C97.4074 123.377 97.9721 123.218 98.5694 123.218C99.0268 123.218 99.4608 123.311 99.8714 123.498C100.282 123.675 100.646 123.927 100.963 124.254C101.29 124.571 101.547 124.949 101.733 125.388C101.92 125.817 102.018 126.289 102.027 126.802C102.018 126.989 101.943 127.143 101.803 127.264C101.663 127.385 101.5 127.446 101.313 127.446H95.8674L95.5314 126.256H100.795L100.529 126.508V126.158C100.511 125.831 100.403 125.547 100.207 125.304C100.011 125.052 99.7688 124.861 99.4794 124.73C99.1901 124.59 98.8868 124.52 98.5694 124.52C98.2894 124.52 98.0188 124.567 97.7574 124.66C97.5054 124.744 97.2768 124.884 97.0714 125.08C96.8754 125.276 96.7168 125.537 96.5954 125.864C96.4834 126.181 96.4274 126.578 96.4274 127.054C96.4274 127.567 96.5348 128.015 96.7494 128.398C96.9641 128.781 97.2534 129.079 97.6174 129.294C97.9814 129.499 98.3828 129.602 98.8214 129.602C99.1668 129.602 99.4514 129.569 99.6754 129.504C99.8994 129.429 100.086 129.341 100.235 129.238C100.385 129.135 100.515 129.037 100.627 128.944C100.767 128.86 100.907 128.818 101.047 128.818C101.215 128.818 101.355 128.879 101.467 129C101.579 129.112 101.635 129.247 101.635 129.406C101.635 129.611 101.533 129.798 101.327 129.966C101.075 130.209 100.725 130.423 100.277 130.61C99.8388 130.797 99.3768 130.89 98.8914 130.89Z" fill="#0A0D12"/>
</svg>
