<svg width="173" height="173" viewBox="0 0 173 173" fill="none" xmlns="http://www.w3.org/2000/svg">
<rect x="0.5" y="1" width="171.5" height="171.5" rx="85.75" fill="#FAFAFA"/>
<rect x="0.5" y="1" width="171.5" height="171.5" rx="85.75" stroke="#DEDCDC"/>
<path d="M67.079 69.75C66.407 69.75 65.855 69.546 65.423 69.138C64.991 68.706 64.775 68.178 64.775 67.554V49.41L65.279 50.202L62.651 52.146C62.315 52.41 61.895 52.542 61.391 52.542C60.815 52.542 60.311 52.326 59.879 51.894C59.447 51.462 59.231 50.946 59.231 50.346C59.231 49.578 59.603 48.954 60.347 48.474L65.531 45.018C65.771 44.85 66.035 44.73 66.323 44.658C66.635 44.586 66.923 44.55 67.187 44.55C67.883 44.55 68.435 44.766 68.843 45.198C69.251 45.606 69.455 46.122 69.455 46.746V67.554C69.455 68.178 69.227 68.706 68.771 69.138C68.339 69.546 67.775 69.75 67.079 69.75ZM82.8352 70.11C80.7712 70.11 79.0192 69.57 77.5792 68.49C76.1632 67.386 75.0832 65.862 74.3392 63.918C73.5952 61.95 73.2232 59.694 73.2232 57.15C73.2232 54.582 73.5952 52.326 74.3392 50.382C75.0832 48.438 76.1632 46.926 77.5792 45.846C79.0192 44.742 80.7712 44.19 82.8352 44.19C84.8992 44.19 86.6392 44.742 88.0552 45.846C89.4952 46.926 90.5872 48.438 91.3312 50.382C92.0752 52.326 92.4472 54.582 92.4472 57.15C92.4472 59.694 92.0752 61.95 91.3312 63.918C90.5872 65.862 89.4952 67.386 88.0552 68.49C86.6392 69.57 84.8992 70.11 82.8352 70.11ZM82.8352 65.79C83.8432 65.79 84.7072 65.478 85.4272 64.854C86.1712 64.206 86.7472 63.246 87.1552 61.974C87.5632 60.678 87.7672 59.07 87.7672 57.15C87.7672 55.206 87.5632 53.598 87.1552 52.326C86.7472 51.054 86.1712 50.106 85.4272 49.482C84.7072 48.834 83.8432 48.51 82.8352 48.51C81.8512 48.51 80.9872 48.834 80.2432 49.482C79.4992 50.106 78.9232 51.054 78.5152 52.326C78.1072 53.598 77.9032 55.206 77.9032 57.15C77.9032 59.07 78.1072 60.678 78.5152 61.974C78.9232 63.246 79.4992 64.206 80.2432 64.854C80.9872 65.478 81.8512 65.79 82.8352 65.79ZM96.6325 59.814C96.0565 59.814 95.5765 59.622 95.1925 59.238C94.8085 58.854 94.6165 58.374 94.6165 57.798C94.6165 57.222 94.8085 56.754 95.1925 56.394C95.5765 56.034 96.0565 55.854 96.6325 55.854H111.284C111.86 55.854 112.34 56.046 112.724 56.43C113.108 56.79 113.3 57.258 113.3 57.834C113.3 58.41 113.108 58.89 112.724 59.274C112.34 59.634 111.86 59.814 111.284 59.814H96.6325ZM103.904 66.834C103.232 66.834 102.668 66.618 102.212 66.186C101.78 65.754 101.564 65.202 101.564 64.53V50.49C101.564 49.818 101.792 49.266 102.248 48.834C102.704 48.402 103.268 48.186 103.94 48.186C104.636 48.186 105.188 48.402 105.596 48.834C106.028 49.266 106.244 49.818 106.244 50.49V64.53C106.244 65.202 106.028 65.754 105.596 66.186C105.164 66.618 104.6 66.834 103.904 66.834Z" fill="#FF623E"/>
<path d="M34.7476 102.036C34.7382 102.241 34.6589 102.414 34.5096 102.554C34.3696 102.685 34.2016 102.75 34.0056 102.75C33.7909 102.75 33.6136 102.685 33.4736 102.554C33.3429 102.414 33.2776 102.241 33.2776 102.036V93.664C33.2776 93.4587 33.3476 93.2907 33.4876 93.16C33.6276 93.02 33.8096 92.95 34.0336 92.95C34.2202 92.95 34.3836 93.02 34.5236 93.16C34.6729 93.2907 34.7476 93.4587 34.7476 93.664V102.036ZM40.65 95.218C41.3126 95.218 41.826 95.358 42.19 95.638C42.554 95.9087 42.806 96.2773 42.946 96.744C43.0953 97.2013 43.17 97.7147 43.17 98.284V102.036C43.17 102.241 43.1 102.414 42.96 102.554C42.8293 102.685 42.666 102.75 42.47 102.75C42.2646 102.75 42.0966 102.685 41.966 102.554C41.8353 102.414 41.77 102.241 41.77 102.036V98.298C41.77 97.962 41.7233 97.6633 41.63 97.402C41.5366 97.1313 41.3733 96.9167 41.14 96.758C40.916 96.59 40.5986 96.506 40.188 96.506C39.8053 96.506 39.4693 96.59 39.18 96.758C38.8906 96.9167 38.662 97.1313 38.494 97.402C38.3353 97.6633 38.256 97.962 38.256 98.298V102.036C38.256 102.241 38.186 102.414 38.046 102.554C37.9153 102.685 37.752 102.75 37.556 102.75C37.3506 102.75 37.1826 102.685 37.052 102.554C36.9213 102.414 36.856 102.241 36.856 102.036V96.1C36.856 95.8947 36.9213 95.7267 37.052 95.596C37.1826 95.456 37.3506 95.386 37.556 95.386C37.752 95.386 37.9153 95.456 38.046 95.596C38.186 95.7267 38.256 95.8947 38.256 96.1V96.884L38.004 97.024C38.0693 96.8187 38.1813 96.6133 38.34 96.408C38.508 96.1933 38.7086 95.9973 38.942 95.82C39.1753 95.6333 39.4366 95.4887 39.726 95.386C40.0153 95.274 40.3233 95.218 40.65 95.218ZM51.1478 92.39C51.3531 92.39 51.5211 92.4553 51.6518 92.586C51.7825 92.7167 51.8478 92.8893 51.8478 93.104V102.036C51.8478 102.241 51.7825 102.414 51.6518 102.554C51.5211 102.685 51.3531 102.75 51.1478 102.75C50.9518 102.75 50.7838 102.685 50.6438 102.554C50.5131 102.414 50.4478 102.241 50.4478 102.036V101.028L50.7418 101.042C50.7418 101.21 50.6718 101.401 50.5318 101.616C50.4011 101.821 50.2191 102.022 49.9858 102.218C49.7525 102.414 49.4771 102.577 49.1598 102.708C48.8425 102.829 48.5018 102.89 48.1378 102.89C47.4938 102.89 46.9151 102.727 46.4018 102.4C45.8885 102.064 45.4825 101.611 45.1838 101.042C44.8851 100.463 44.7358 99.8007 44.7358 99.054C44.7358 98.3073 44.8851 97.6493 45.1838 97.08C45.4825 96.5013 45.8838 96.0487 46.3878 95.722C46.9011 95.386 47.4705 95.218 48.0958 95.218C48.4878 95.218 48.8518 95.2833 49.1878 95.414C49.5331 95.5447 49.8318 95.7127 50.0838 95.918C50.3358 96.1233 50.5318 96.3427 50.6718 96.576C50.8118 96.8 50.8818 97.0147 50.8818 97.22L50.4478 97.262V93.104C50.4478 92.8987 50.5131 92.7307 50.6438 92.6C50.7838 92.46 50.9518 92.39 51.1478 92.39ZM48.2918 101.602C48.7398 101.602 49.1271 101.49 49.4538 101.266C49.7898 101.042 50.0511 100.739 50.2378 100.356C50.4245 99.9733 50.5178 99.5393 50.5178 99.054C50.5178 98.5687 50.4245 98.1347 50.2378 97.752C50.0511 97.3693 49.7898 97.066 49.4538 96.842C49.1178 96.618 48.7305 96.506 48.2918 96.506C47.8625 96.506 47.4798 96.618 47.1438 96.842C46.8171 97.066 46.5558 97.3693 46.3598 97.752C46.1731 98.1347 46.0798 98.5687 46.0798 99.054C46.0798 99.5393 46.1731 99.9733 46.3598 100.356C46.5558 100.739 46.8171 101.042 47.1438 101.266C47.4798 101.49 47.8625 101.602 48.2918 101.602ZM59.5159 95.386C59.7119 95.386 59.8752 95.456 60.0059 95.596C60.1459 95.7267 60.2159 95.8947 60.2159 96.1V99.782C60.2159 100.753 59.9452 101.513 59.4039 102.064C58.8625 102.605 58.0972 102.876 57.1079 102.876C56.1279 102.876 55.3672 102.605 54.8259 102.064C54.2939 101.513 54.0279 100.753 54.0279 99.782V96.1C54.0279 95.8947 54.0932 95.7267 54.2239 95.596C54.3545 95.456 54.5225 95.386 54.7279 95.386C54.9239 95.386 55.0872 95.456 55.2179 95.596C55.3579 95.7267 55.4279 95.8947 55.4279 96.1V99.782C55.4279 100.389 55.5679 100.841 55.8479 101.14C56.1372 101.439 56.5572 101.588 57.1079 101.588C57.6679 101.588 58.0925 101.439 58.3819 101.14C58.6712 100.841 58.8159 100.389 58.8159 99.782V96.1C58.8159 95.8947 58.8812 95.7267 59.0119 95.596C59.1425 95.456 59.3105 95.386 59.5159 95.386ZM61.7286 101.602C61.6446 101.471 61.6073 101.322 61.6166 101.154C61.626 100.977 61.724 100.827 61.9106 100.706C62.0413 100.622 62.1766 100.589 62.3166 100.608C62.466 100.617 62.606 100.687 62.7366 100.818C62.998 101.107 63.2873 101.336 63.6046 101.504C63.9313 101.672 64.3233 101.756 64.7806 101.756C64.9673 101.747 65.1586 101.719 65.3546 101.672C65.5506 101.616 65.7186 101.523 65.8586 101.392C65.9986 101.252 66.0686 101.051 66.0686 100.79C66.0686 100.557 65.994 100.37 65.8446 100.23C65.6953 100.09 65.4993 99.978 65.2566 99.894C65.014 99.8007 64.7526 99.7167 64.4726 99.642C64.174 99.558 63.8706 99.4647 63.5626 99.362C63.264 99.2593 62.9933 99.1287 62.7506 98.97C62.508 98.802 62.3073 98.5873 62.1486 98.326C61.9993 98.0647 61.9246 97.7427 61.9246 97.36C61.9246 96.9213 62.046 96.5433 62.2886 96.226C62.5406 95.9087 62.8626 95.6613 63.2546 95.484C63.656 95.3067 64.09 95.218 64.5566 95.218C64.8273 95.218 65.112 95.2553 65.4106 95.33C65.7093 95.3953 65.9986 95.5027 66.2786 95.652C66.5586 95.8013 66.8013 95.9973 67.0066 96.24C67.1 96.3613 67.1513 96.506 67.1606 96.674C67.1793 96.842 67.1046 96.9913 66.9366 97.122C66.8246 97.2153 66.6893 97.2573 66.5306 97.248C66.372 97.2387 66.2413 97.1873 66.1386 97.094C65.9613 96.87 65.7326 96.6973 65.4526 96.576C65.1726 96.4453 64.8553 96.38 64.5006 96.38C64.3233 96.38 64.1366 96.408 63.9406 96.464C63.754 96.5107 63.5953 96.5993 63.4646 96.73C63.334 96.8607 63.2686 97.052 63.2686 97.304C63.2686 97.5373 63.3433 97.724 63.4926 97.864C63.6513 98.004 63.8566 98.1207 64.1086 98.214C64.3606 98.3073 64.636 98.3913 64.9346 98.466C65.224 98.5407 65.5086 98.6293 65.7886 98.732C66.078 98.8347 66.3346 98.97 66.5586 99.138C66.792 99.2967 66.9786 99.5067 67.1186 99.768C67.268 100.02 67.3426 100.342 67.3426 100.734C67.3426 101.191 67.2073 101.583 66.9366 101.91C66.6753 102.227 66.3393 102.47 65.9286 102.638C65.5273 102.806 65.1026 102.89 64.6546 102.89C64.1226 102.89 63.5906 102.797 63.0586 102.61C62.536 102.414 62.0926 102.078 61.7286 101.602ZM68.7502 95.47H72.0402C72.2268 95.47 72.3808 95.5353 72.5022 95.666C72.6328 95.7873 72.6982 95.9413 72.6982 96.128C72.6982 96.3053 72.6328 96.4547 72.5022 96.576C72.3808 96.6973 72.2268 96.758 72.0402 96.758H68.7502C68.5635 96.758 68.4048 96.6973 68.2742 96.576C68.1528 96.4453 68.0922 96.2913 68.0922 96.114C68.0922 95.9273 68.1528 95.7733 68.2742 95.652C68.4048 95.5307 68.5635 95.47 68.7502 95.47ZM70.2202 93.65C70.4255 93.65 70.5935 93.72 70.7242 93.86C70.8548 93.9907 70.9202 94.1587 70.9202 94.364V100.86C70.9202 101.028 70.9482 101.163 71.0042 101.266C71.0602 101.369 71.1348 101.439 71.2282 101.476C71.3308 101.513 71.4335 101.532 71.5362 101.532C71.6388 101.532 71.7275 101.513 71.8022 101.476C71.8862 101.439 71.9842 101.42 72.0962 101.42C72.2082 101.42 72.3108 101.471 72.4042 101.574C72.4975 101.677 72.5442 101.817 72.5442 101.994C72.5442 102.218 72.4228 102.4 72.1802 102.54C71.9375 102.68 71.6762 102.75 71.3962 102.75C71.2375 102.75 71.0508 102.736 70.8362 102.708C70.6215 102.68 70.4115 102.61 70.2062 102.498C70.0102 102.386 69.8468 102.209 69.7162 101.966C69.5855 101.714 69.5202 101.364 69.5202 100.916V94.364C69.5202 94.1587 69.5855 93.9907 69.7162 93.86C69.8562 93.72 70.0242 93.65 70.2202 93.65ZM74.9486 102.75C74.7432 102.75 74.5752 102.685 74.4446 102.554C74.3139 102.414 74.2486 102.241 74.2486 102.036V96.1C74.2486 95.8947 74.3139 95.7267 74.4446 95.596C74.5752 95.456 74.7432 95.386 74.9486 95.386C75.1446 95.386 75.3079 95.456 75.4386 95.596C75.5786 95.7267 75.6486 95.8947 75.6486 96.1V97.668L75.5086 97.066C75.5832 96.8047 75.6952 96.562 75.8446 96.338C76.0032 96.114 76.1899 95.918 76.4046 95.75C76.6192 95.582 76.8572 95.4513 77.1186 95.358C77.3892 95.2647 77.6692 95.218 77.9586 95.218C78.2012 95.218 78.4112 95.2833 78.5886 95.414C78.7659 95.5447 78.8546 95.708 78.8546 95.904C78.8546 96.156 78.7892 96.3427 78.6586 96.464C78.5279 96.576 78.3832 96.632 78.2246 96.632C78.0846 96.632 77.9492 96.604 77.8186 96.548C77.6879 96.4827 77.5339 96.45 77.3566 96.45C77.1606 96.45 76.9599 96.5013 76.7546 96.604C76.5492 96.7067 76.3626 96.8607 76.1946 97.066C76.0266 97.262 75.8912 97.4953 75.7886 97.766C75.6952 98.0367 75.6486 98.34 75.6486 98.676V102.036C75.6486 102.241 75.5786 102.414 75.4386 102.554C75.3079 102.685 75.1446 102.75 74.9486 102.75ZM85.5741 95.33C85.7795 95.33 85.9475 95.4 86.0781 95.54C86.2088 95.6707 86.2741 95.8387 86.2741 96.044V102.064C86.2741 102.885 86.1155 103.553 85.7981 104.066C85.4901 104.579 85.0701 104.953 84.5381 105.186C84.0155 105.429 83.4228 105.55 82.7601 105.55C82.4241 105.55 82.0881 105.517 81.7521 105.452C81.4161 105.396 81.1408 105.312 80.9261 105.2C80.7021 105.097 80.5435 104.971 80.4501 104.822C80.3568 104.673 80.3428 104.509 80.4081 104.332C80.4735 104.108 80.5855 103.954 80.7441 103.87C80.9028 103.795 81.0661 103.791 81.2341 103.856C81.3928 103.921 81.6028 104.005 81.8641 104.108C82.1255 104.211 82.4241 104.262 82.7601 104.262C83.2175 104.262 83.6048 104.187 83.9221 104.038C84.2395 103.889 84.4775 103.655 84.6361 103.338C84.8041 103.021 84.8881 102.61 84.8881 102.106V101.14L85.1121 101.476C84.9628 101.784 84.7668 102.041 84.5241 102.246C84.2815 102.451 83.9921 102.61 83.6561 102.722C83.3295 102.834 82.9655 102.89 82.5641 102.89C82.0508 102.89 81.6075 102.778 81.2341 102.554C80.8701 102.321 80.5901 102.003 80.3941 101.602C80.1981 101.191 80.1001 100.725 80.1001 100.202V96.044C80.1001 95.8387 80.1655 95.6707 80.2961 95.54C80.4268 95.4 80.5948 95.33 80.8001 95.33C80.9961 95.33 81.1595 95.4 81.2901 95.54C81.4301 95.6707 81.5001 95.8387 81.5001 96.044V99.824C81.5001 100.44 81.6355 100.893 81.9061 101.182C82.1768 101.462 82.5781 101.602 83.1101 101.602C83.4648 101.602 83.7728 101.527 84.0341 101.378C84.2955 101.229 84.5008 101.023 84.6501 100.762C84.7995 100.491 84.8741 100.179 84.8741 99.824V96.044C84.8741 95.8387 84.9395 95.6707 85.0701 95.54C85.2101 95.4 85.3781 95.33 85.5741 95.33ZM95.7854 94.77L92.6354 102.33C92.5794 102.479 92.4954 102.596 92.3834 102.68C92.2714 102.764 92.1454 102.806 92.0054 102.806C91.8 102.806 91.646 102.75 91.5434 102.638C91.4407 102.517 91.3847 102.367 91.3754 102.19C91.3754 102.125 91.3894 102.05 91.4174 101.966L94.9734 93.37C95.0387 93.2113 95.132 93.09 95.2534 93.006C95.384 92.922 95.524 92.8847 95.6734 92.894C95.8134 92.894 95.944 92.936 96.0654 93.02C96.1867 93.104 96.2754 93.2207 96.3314 93.37L99.8454 101.84C99.8827 101.933 99.9014 102.027 99.9014 102.12C99.9014 102.325 99.8314 102.493 99.6914 102.624C99.5607 102.745 99.4114 102.806 99.2434 102.806C99.1034 102.806 98.9727 102.764 98.8514 102.68C98.7394 102.587 98.6554 102.47 98.5994 102.33L95.4214 94.812L95.7854 94.77ZM93.1954 100.342L93.8254 98.998H97.7874L98.0254 100.342H93.1954ZM109.573 95.316C109.75 95.316 109.904 95.386 110.035 95.526C110.175 95.6567 110.245 95.8293 110.245 96.044C110.245 96.0907 110.24 96.1373 110.231 96.184C110.221 96.2307 110.207 96.2727 110.189 96.31L108.047 102.302C107.991 102.461 107.893 102.582 107.753 102.666C107.613 102.741 107.468 102.769 107.319 102.75C107.048 102.731 106.847 102.582 106.717 102.302L105.135 98.102L105.457 98.13L104.001 102.302C103.87 102.582 103.669 102.731 103.399 102.75C103.259 102.769 103.114 102.741 102.965 102.666C102.825 102.582 102.727 102.461 102.671 102.302L100.515 96.31C100.477 96.226 100.459 96.1373 100.459 96.044C100.459 95.848 100.519 95.68 100.641 95.54C100.771 95.3907 100.944 95.316 101.159 95.316C101.308 95.316 101.439 95.3533 101.551 95.428C101.672 95.5027 101.756 95.6147 101.803 95.764L103.595 100.818L103.273 100.79L104.729 96.968C104.85 96.6787 105.065 96.534 105.373 96.534C105.541 96.534 105.671 96.5713 105.765 96.646C105.858 96.7207 105.933 96.828 105.989 96.968L107.473 100.804L107.095 100.846L108.901 95.764C108.994 95.4653 109.218 95.316 109.573 95.316ZM117.757 95.274C117.962 95.274 118.13 95.344 118.261 95.484C118.392 95.6147 118.457 95.7827 118.457 95.988V102.036C118.457 102.241 118.392 102.414 118.261 102.554C118.13 102.685 117.962 102.75 117.757 102.75C117.561 102.75 117.393 102.685 117.253 102.554C117.122 102.414 117.057 102.241 117.057 102.036V101.028L117.351 101.07C117.351 101.238 117.281 101.425 117.141 101.63C117.01 101.835 116.828 102.036 116.595 102.232C116.362 102.419 116.086 102.577 115.769 102.708C115.452 102.829 115.111 102.89 114.747 102.89C114.103 102.89 113.524 102.727 113.011 102.4C112.498 102.064 112.092 101.607 111.793 101.028C111.494 100.449 111.345 99.7913 111.345 99.054C111.345 98.298 111.494 97.6353 111.793 97.066C112.092 96.4873 112.493 96.0347 112.997 95.708C113.51 95.3813 114.08 95.218 114.705 95.218C115.106 95.218 115.475 95.2833 115.811 95.414C116.156 95.5447 116.455 95.7127 116.707 95.918C116.959 96.1233 117.15 96.3427 117.281 96.576C117.421 96.8 117.491 97.0147 117.491 97.22L117.057 97.262V95.988C117.057 95.792 117.122 95.624 117.253 95.484C117.393 95.344 117.561 95.274 117.757 95.274ZM114.901 101.602C115.34 101.602 115.727 101.49 116.063 101.266C116.399 101.042 116.66 100.739 116.847 100.356C117.034 99.964 117.127 99.53 117.127 99.054C117.127 98.5687 117.034 98.1347 116.847 97.752C116.66 97.3693 116.399 97.066 116.063 96.842C115.727 96.618 115.34 96.506 114.901 96.506C114.472 96.506 114.089 96.618 113.753 96.842C113.426 97.066 113.165 97.3693 112.969 97.752C112.782 98.1347 112.689 98.5687 112.689 99.054C112.689 99.53 112.782 99.964 112.969 100.356C113.165 100.739 113.426 101.042 113.753 101.266C114.089 101.49 114.472 101.602 114.901 101.602ZM121.118 102.75C120.913 102.75 120.745 102.685 120.614 102.554C120.484 102.414 120.418 102.241 120.418 102.036V96.1C120.418 95.8947 120.484 95.7267 120.614 95.596C120.745 95.456 120.913 95.386 121.118 95.386C121.314 95.386 121.478 95.456 121.608 95.596C121.748 95.7267 121.818 95.8947 121.818 96.1V97.668L121.678 97.066C121.753 96.8047 121.865 96.562 122.014 96.338C122.173 96.114 122.36 95.918 122.574 95.75C122.789 95.582 123.027 95.4513 123.288 95.358C123.559 95.2647 123.839 95.218 124.128 95.218C124.371 95.218 124.581 95.2833 124.758 95.414C124.936 95.5447 125.024 95.708 125.024 95.904C125.024 96.156 124.959 96.3427 124.828 96.464C124.698 96.576 124.553 96.632 124.394 96.632C124.254 96.632 124.119 96.604 123.988 96.548C123.858 96.4827 123.704 96.45 123.526 96.45C123.33 96.45 123.13 96.5013 122.924 96.604C122.719 96.7067 122.532 96.8607 122.364 97.066C122.196 97.262 122.061 97.4953 121.958 97.766C121.865 98.0367 121.818 98.34 121.818 98.676V102.036C121.818 102.241 121.748 102.414 121.608 102.554C121.478 102.685 121.314 102.75 121.118 102.75ZM131.99 92.39C132.195 92.39 132.363 92.4553 132.494 92.586C132.624 92.7167 132.69 92.8893 132.69 93.104V102.036C132.69 102.241 132.624 102.414 132.494 102.554C132.363 102.685 132.195 102.75 131.99 102.75C131.794 102.75 131.626 102.685 131.486 102.554C131.355 102.414 131.29 102.241 131.29 102.036V101.028L131.584 101.042C131.584 101.21 131.514 101.401 131.374 101.616C131.243 101.821 131.061 102.022 130.828 102.218C130.594 102.414 130.319 102.577 130.002 102.708C129.684 102.829 129.344 102.89 128.98 102.89C128.336 102.89 127.757 102.727 127.244 102.4C126.73 102.064 126.324 101.611 126.026 101.042C125.727 100.463 125.578 99.8007 125.578 99.054C125.578 98.3073 125.727 97.6493 126.026 97.08C126.324 96.5013 126.726 96.0487 127.23 95.722C127.743 95.386 128.312 95.218 128.938 95.218C129.33 95.218 129.694 95.2833 130.03 95.414C130.375 95.5447 130.674 95.7127 130.926 95.918C131.178 96.1233 131.374 96.3427 131.514 96.576C131.654 96.8 131.724 97.0147 131.724 97.22L131.29 97.262V93.104C131.29 92.8987 131.355 92.7307 131.486 92.6C131.626 92.46 131.794 92.39 131.99 92.39ZM129.134 101.602C129.582 101.602 129.969 101.49 130.296 101.266C130.632 101.042 130.893 100.739 131.08 100.356C131.266 99.9733 131.36 99.5393 131.36 99.054C131.36 98.5687 131.266 98.1347 131.08 97.752C130.893 97.3693 130.632 97.066 130.296 96.842C129.96 96.618 129.572 96.506 129.134 96.506C128.704 96.506 128.322 96.618 127.986 96.842C127.659 97.066 127.398 97.3693 127.202 97.752C127.015 98.1347 126.922 98.5687 126.922 99.054C126.922 99.5393 127.015 99.9733 127.202 100.356C127.398 100.739 127.659 101.042 127.986 101.266C128.322 101.49 128.704 101.602 129.134 101.602ZM134.217 101.602C134.133 101.471 134.096 101.322 134.105 101.154C134.114 100.977 134.212 100.827 134.399 100.706C134.53 100.622 134.665 100.589 134.805 100.608C134.954 100.617 135.094 100.687 135.225 100.818C135.486 101.107 135.776 101.336 136.093 101.504C136.42 101.672 136.812 101.756 137.269 101.756C137.456 101.747 137.647 101.719 137.843 101.672C138.039 101.616 138.207 101.523 138.347 101.392C138.487 101.252 138.557 101.051 138.557 100.79C138.557 100.557 138.482 100.37 138.333 100.23C138.184 100.09 137.988 99.978 137.745 99.894C137.502 99.8007 137.241 99.7167 136.961 99.642C136.662 99.558 136.359 99.4647 136.051 99.362C135.752 99.2593 135.482 99.1287 135.239 98.97C134.996 98.802 134.796 98.5873 134.637 98.326C134.488 98.0647 134.413 97.7427 134.413 97.36C134.413 96.9213 134.534 96.5433 134.777 96.226C135.029 95.9087 135.351 95.6613 135.743 95.484C136.144 95.3067 136.578 95.218 137.045 95.218C137.316 95.218 137.6 95.2553 137.899 95.33C138.198 95.3953 138.487 95.5027 138.767 95.652C139.047 95.8013 139.29 95.9973 139.495 96.24C139.588 96.3613 139.64 96.506 139.649 96.674C139.668 96.842 139.593 96.9913 139.425 97.122C139.313 97.2153 139.178 97.2573 139.019 97.248C138.86 97.2387 138.73 97.1873 138.627 97.094C138.45 96.87 138.221 96.6973 137.941 96.576C137.661 96.4453 137.344 96.38 136.989 96.38C136.812 96.38 136.625 96.408 136.429 96.464C136.242 96.5107 136.084 96.5993 135.953 96.73C135.822 96.8607 135.757 97.052 135.757 97.304C135.757 97.5373 135.832 97.724 135.981 97.864C136.14 98.004 136.345 98.1207 136.597 98.214C136.849 98.3073 137.124 98.3913 137.423 98.466C137.712 98.5407 137.997 98.6293 138.277 98.732C138.566 98.8347 138.823 98.97 139.047 99.138C139.28 99.2967 139.467 99.5067 139.607 99.768C139.756 100.02 139.831 100.342 139.831 100.734C139.831 101.191 139.696 101.583 139.425 101.91C139.164 102.227 138.828 102.47 138.417 102.638C138.016 102.806 137.591 102.89 137.143 102.89C136.611 102.89 136.079 102.797 135.547 102.61C135.024 102.414 134.581 102.078 134.217 101.602ZM83.5091 120.908C83.6958 120.908 83.8685 120.978 84.0271 121.118C84.1858 121.249 84.2651 121.431 84.2651 121.664C84.2651 121.729 84.2511 121.809 84.2231 121.902L81.3531 130.302C81.3065 130.442 81.2225 130.549 81.1011 130.624C80.9798 130.699 80.8538 130.741 80.7231 130.75C80.5925 130.75 80.4618 130.713 80.3311 130.638C80.2005 130.563 80.1025 130.451 80.0371 130.302L77.8251 125.122L77.9511 125.178L75.7671 130.302C75.6925 130.451 75.5898 130.563 75.4591 130.638C75.3378 130.713 75.2071 130.75 75.0671 130.75C74.9458 130.741 74.8245 130.699 74.7031 130.624C74.5818 130.549 74.4978 130.442 74.4511 130.302L71.5811 121.902C71.5531 121.809 71.5391 121.729 71.5391 121.664C71.5391 121.431 71.6231 121.249 71.7911 121.118C71.9591 120.978 72.1318 120.908 72.3091 120.908C72.4585 120.908 72.5938 120.95 72.7151 121.034C72.8458 121.109 72.9345 121.221 72.9811 121.37L75.4031 128.594H75.1511L77.2791 123.386C77.3445 123.246 77.4331 123.134 77.5451 123.05C77.6665 122.966 77.8018 122.929 77.9511 122.938C78.1005 122.929 78.2311 122.966 78.3431 123.05C78.4645 123.134 78.5531 123.246 78.6091 123.386L80.6251 128.44L80.4151 128.552L82.8231 121.37C82.8698 121.221 82.9585 121.109 83.0891 121.034C83.2198 120.95 83.3598 120.908 83.5091 120.908ZM92.3924 127.068C92.3924 127.815 92.2291 128.477 91.9024 129.056C91.5758 129.625 91.1324 130.073 90.5724 130.4C90.0124 130.727 89.3824 130.89 88.6824 130.89C87.9824 130.89 87.3524 130.727 86.7924 130.4C86.2324 130.073 85.7844 129.625 85.4484 129.056C85.1218 128.477 84.9584 127.815 84.9584 127.068C84.9584 126.312 85.1218 125.649 85.4484 125.08C85.7844 124.501 86.2324 124.049 86.7924 123.722C87.3524 123.386 87.9824 123.218 88.6824 123.218C89.3824 123.218 90.0124 123.386 90.5724 123.722C91.1324 124.049 91.5758 124.501 91.9024 125.08C92.2291 125.649 92.3924 126.312 92.3924 127.068ZM90.9924 127.068C90.9924 126.555 90.8898 126.111 90.6844 125.738C90.4791 125.355 90.1991 125.057 89.8444 124.842C89.4991 124.618 89.1118 124.506 88.6824 124.506C88.2531 124.506 87.8611 124.618 87.5064 124.842C87.1518 125.057 86.8718 125.355 86.6664 125.738C86.4611 126.111 86.3584 126.555 86.3584 127.068C86.3584 127.563 86.4611 128.001 86.6664 128.384C86.8718 128.767 87.1518 129.065 87.5064 129.28C87.8611 129.495 88.2531 129.602 88.6824 129.602C89.1118 129.602 89.4991 129.495 89.8444 129.28C90.1991 129.065 90.4791 128.767 90.6844 128.384C90.8898 128.001 90.9924 127.563 90.9924 127.068ZM97.7711 123.218C98.4337 123.218 98.9471 123.358 99.3111 123.638C99.6751 123.909 99.9271 124.277 100.067 124.744C100.216 125.201 100.291 125.715 100.291 126.284V130.036C100.291 130.241 100.221 130.414 100.081 130.554C99.9504 130.685 99.7871 130.75 99.5911 130.75C99.3857 130.75 99.2177 130.685 99.0871 130.554C98.9564 130.414 98.8911 130.241 98.8911 130.036V126.298C98.8911 125.962 98.8444 125.663 98.7511 125.402C98.6577 125.131 98.4944 124.917 98.2611 124.758C98.0371 124.59 97.7197 124.506 97.3091 124.506C96.9264 124.506 96.5904 124.59 96.3011 124.758C96.0117 124.917 95.7831 125.131 95.6151 125.402C95.4564 125.663 95.3771 125.962 95.3771 126.298V130.036C95.3771 130.241 95.3071 130.414 95.1671 130.554C95.0364 130.685 94.8731 130.75 94.6771 130.75C94.4717 130.75 94.3037 130.685 94.1731 130.554C94.0424 130.414 93.9771 130.241 93.9771 130.036V124.1C93.9771 123.895 94.0424 123.727 94.1731 123.596C94.3037 123.456 94.4717 123.386 94.6771 123.386C94.8731 123.386 95.0364 123.456 95.1671 123.596C95.3071 123.727 95.3771 123.895 95.3771 124.1V124.884L95.1251 125.024C95.1904 124.819 95.3024 124.613 95.4611 124.408C95.6291 124.193 95.8297 123.997 96.0631 123.82C96.2964 123.633 96.5577 123.489 96.8471 123.386C97.1364 123.274 97.4444 123.218 97.7711 123.218Z" fill="#0A0D12"/>
</svg>
